<svg xmlns="http://www.w3.org/2000/svg" width="48" height="48" viewBox="0 0 48 48" fill="none">
  <path d="M42.9608 3.3125H15.614V40.8996H42.9608V3.3125Z" fill="#F5F5F5"/>
  <path d="M42.9608 3.3125H15.614V5.35572H42.9608V3.3125Z" fill="#E0E0E0"/>
  <path d="M16.8532 4.33449C16.853 4.38877 16.8366 4.44178 16.8063 4.48681C16.776 4.53183 16.733 4.56687 16.6828 4.58749C16.6326 4.6081 16.5774 4.61338 16.5241 4.60265C16.4709 4.59192 16.4221 4.56566 16.3838 4.52719C16.3455 4.48872 16.3194 4.43977 16.3089 4.38651C16.2984 4.33325 16.3039 4.27806 16.3247 4.22793C16.3456 4.17779 16.3808 4.13495 16.4259 4.10482C16.4711 4.07468 16.5242 4.05859 16.5784 4.05859C16.6146 4.05859 16.6504 4.06574 16.6839 4.07962C16.7173 4.0935 16.7476 4.11384 16.7731 4.13947C16.7987 4.1651 16.8189 4.19553 16.8326 4.22899C16.8463 4.26246 16.8533 4.29831 16.8532 4.33449Z" fill="#F5F5F5"/>
  <path d="M18.9124 4.2759C18.9121 4.33009 18.8959 4.383 18.8657 4.42798C18.8354 4.47296 18.7926 4.50799 18.7425 4.52867C18.6924 4.54936 18.6373 4.55477 18.5842 4.54422C18.531 4.53368 18.4822 4.50765 18.4438 4.46941C18.4054 4.43117 18.3791 4.38243 18.3684 4.32932C18.3576 4.27621 18.3628 4.22111 18.3832 4.17093C18.4037 4.12076 18.4386 4.07776 18.4834 4.04735C18.5283 4.01694 18.5811 4.00047 18.6353 4.00001C18.6717 3.9997 18.7078 4.00662 18.7414 4.02036C18.7751 4.03411 18.8057 4.0544 18.8315 4.08006C18.8573 4.10573 18.8777 4.13626 18.8916 4.16987C18.9054 4.20349 18.9125 4.23953 18.9124 4.2759Z" fill="#F5F5F5"/>
  <path d="M17.9322 4.27589C17.9319 4.33018 17.9156 4.38318 17.8853 4.42821C17.855 4.47324 17.812 4.50828 17.7618 4.52889C17.7115 4.54951 17.6563 4.55479 17.6031 4.54405C17.5499 4.53332 17.5011 4.50707 17.4628 4.4686C17.4244 4.43013 17.3984 4.38118 17.3879 4.32791C17.3774 4.27465 17.3829 4.21947 17.4037 4.16934C17.4245 4.1192 17.4598 4.07636 17.5049 4.04622C17.5501 4.01609 17.6031 4 17.6574 4C17.6936 4 17.7294 4.00714 17.7628 4.02102C17.7962 4.0349 17.8266 4.05524 17.8521 4.08088C17.8776 4.10651 17.8978 4.13693 17.9116 4.1704C17.9253 4.20387 17.9323 4.23972 17.9322 4.27589Z" fill="#F5F5F5"/>
  <path d="M45.9023 7.21077C45.9023 7.21077 44.8125 6.75942 44.0818 9.2967C43.3511 11.834 43.1641 13.2538 43.1641 13.2538C43.1641 13.2538 42.9459 13.7975 42.5523 13.5459C42.1587 13.2942 41.5295 12.4839 40.9962 12.7552C40.4421 13.0357 40.3752 13.7271 40.673 14.6668C40.9708 15.6064 41.548 17.6889 41.5965 17.877C41.645 18.0652 41.5965 18.3596 41.2975 18.2314C40.9985 18.1033 39.177 16.7204 38.5732 17.6266C37.9695 18.5327 39.2289 21.0123 39.3617 21.287C39.4944 21.5618 39.4609 21.6945 39.3374 21.7926C39.2139 21.8908 38.6448 21.3678 38.1092 20.9961C37.5735 20.6244 36.889 20.2873 36.5843 20.8391C36.2795 21.3909 36.5335 23.3857 39.028 26.2242L40.2713 27.464L41.9797 27.0334C45.5813 25.8895 46.828 24.3126 46.8534 23.6858C46.8788 23.059 46.1158 22.9932 45.4682 23.0336C44.8206 23.074 44.061 23.2287 44.0056 23.0821C43.9502 22.9355 43.9918 22.8027 44.2469 22.6365C44.502 22.4702 46.8615 20.995 46.8107 19.9076C46.7599 18.8202 44.4847 19.0626 44.1649 19.0199C43.8452 18.9772 43.9525 18.6943 44.0911 18.5581C44.2296 18.4219 45.8007 16.9362 46.5406 16.2852C47.2806 15.6341 47.5795 15.0085 47.2517 14.4809C46.9342 13.9742 45.9819 14.3424 45.5109 14.3551C45.0399 14.3678 45.1381 13.7895 45.1381 13.7895C45.1381 13.7895 45.7083 12.477 46.3929 9.92698C47.0774 7.377 45.8757 7.20269 45.8757 7.20269" fill="#EBEBEB"/>
  <path d="M45.2454 9.48438C45.2454 9.48438 45.2454 9.50284 45.2339 9.53863C45.2224 9.57442 45.2108 9.62867 45.1947 9.69562C45.1577 9.83761 45.1058 10.0419 45.0377 10.3005C44.9015 10.8257 44.6983 11.5842 44.4432 12.5192C43.9329 14.3904 43.208 16.9704 42.3965 19.8159C41.585 22.6614 40.8531 25.2414 40.3337 27.108L39.7207 29.3209C39.648 29.5806 39.5914 29.7826 39.5533 29.9223C39.5337 29.9893 39.5187 30.0377 39.5083 30.0793L39.491 30.1312C39.491 30.1312 39.491 30.1128 39.5014 30.077C39.5117 30.0412 39.5244 29.9869 39.5406 29.92C39.5775 29.7792 39.6306 29.5737 39.6976 29.3151C39.8338 28.7899 40.0381 28.0326 40.2932 27.0964C40.8023 25.2252 41.5284 22.6464 42.3388 19.7997C43.1491 16.9531 43.8822 14.3742 44.4016 12.5076L45.0157 10.2924C45.0873 10.0327 45.1439 9.83068 45.1831 9.691C45.2016 9.62405 45.2166 9.57211 45.2281 9.53517C45.2385 9.50054 45.2454 9.48438 45.2454 9.48438Z" fill="#E0E0E0"/>
  <path d="M41.8347 13.9219C41.8617 13.9549 41.8842 13.9914 41.9017 14.0304C41.9421 14.102 41.9963 14.2058 42.0633 14.3363C42.1949 14.596 42.3669 14.9608 42.5504 15.366L43.0122 16.4049L43.1541 16.72C43.1749 16.7562 43.1904 16.795 43.2003 16.8355C43.1745 16.802 43.1521 16.7661 43.1334 16.7281C43.093 16.6566 43.0387 16.5515 42.9741 16.4211C42.8448 16.159 42.6762 15.7931 42.4939 15.3821L42.024 14.3432C41.9675 14.2197 41.919 14.1123 41.8797 14.0292C41.8611 13.9951 41.846 13.9591 41.8347 13.9219Z" fill="#E0E0E0"/>
  <path d="M43.3641 16.8382C43.356 16.8231 44.0913 16.4341 45.0044 15.9689C45.9175 15.5037 46.6644 15.1378 46.6725 15.1528C46.6806 15.1678 45.9452 15.5568 45.0321 16.022C44.119 16.4872 43.371 16.8532 43.3641 16.8382Z" fill="#E0E0E0"/>
  <path d="M41.9193 21.1547C41.9599 21.1395 42.0021 21.1291 42.0451 21.1235L42.3914 21.0578C42.6823 21.0012 43.084 20.9215 43.5261 20.8188C43.9682 20.7161 44.3653 20.6099 44.6516 20.5314L44.991 20.4379C45.0323 20.4244 45.0748 20.4151 45.118 20.4102C45.0818 20.4317 45.043 20.4484 45.0025 20.4598C44.924 20.4887 44.8098 20.5267 44.6678 20.5752C44.3838 20.6653 43.9879 20.7772 43.5446 20.88C43.1013 20.9827 42.6973 21.0566 42.4029 21.1028C42.2552 21.1247 42.1363 21.1409 42.0566 21.1501C42.0113 21.158 41.965 21.1595 41.9193 21.1547Z" fill="#E0E0E0"/>
  <path d="M39.9555 18.8203C39.9872 18.8449 40.0162 18.8728 40.0421 18.9034C40.0952 18.9588 40.1702 19.0408 40.2626 19.1435C40.4461 19.3479 40.6966 19.633 40.9713 19.9516C41.2461 20.2702 41.492 20.5588 41.664 20.77C41.7517 20.8762 41.8221 20.9628 41.8694 21.0228C41.8971 21.0521 41.9204 21.0851 41.9387 21.1209C41.9067 21.0967 41.8776 21.0688 41.8521 21.0378C41.799 20.9824 41.724 20.9005 41.6316 20.7977C41.4481 20.5934 41.1964 20.3083 40.9229 19.9897C40.6493 19.6711 40.4022 19.3825 40.2302 19.1712C40.1425 19.065 40.0721 18.9796 40.0248 18.9184C39.9966 18.8896 39.9733 18.8565 39.9555 18.8203Z" fill="#E0E0E0"/>
  <path d="M38.196 22.4688C38.2363 22.5006 38.273 22.5366 38.3057 22.5761L38.5897 22.882C38.8263 23.1429 39.1507 23.5054 39.5062 23.9094C39.8618 24.3134 40.1815 24.6793 40.4101 24.9483L40.6791 25.2681C40.7138 25.3057 40.7447 25.3467 40.7714 25.3904C40.7293 25.3587 40.6906 25.3228 40.656 25.2831L40.3732 24.9772C40.1365 24.7163 39.8121 24.3527 39.4566 23.9498C39.1011 23.5469 38.7813 23.1798 38.5527 22.9109L38.2838 22.5911C38.2505 22.5534 38.2211 22.5124 38.196 22.4688Z" fill="#E0E0E0"/>
  <path d="M40.7298 25.3016C40.7816 25.2825 40.8349 25.2678 40.8891 25.2578L41.3243 25.1585C41.6914 25.0742 42.1993 24.9553 42.7557 24.8122C43.3121 24.669 43.8119 24.5224 44.1744 24.4162L44.6027 24.2904C44.6544 24.2721 44.7077 24.2585 44.762 24.25C44.7136 24.2762 44.6625 24.2971 44.6096 24.3123C44.5103 24.3481 44.366 24.3978 44.1871 24.4566C43.8281 24.5721 43.3283 24.7256 42.7707 24.871C42.2131 25.0165 41.7029 25.1296 41.3324 25.2035C41.1477 25.2404 40.9976 25.2681 40.8926 25.2843C40.839 25.2957 40.7845 25.3015 40.7298 25.3016Z" fill="#E0E0E0"/>
  <path d="M8.51068 2.97558C8.6651 2.89369 8.83446 2.84381 9.00862 2.82893C9.18277 2.81405 9.35814 2.83449 9.52421 2.88901C9.85611 3.00011 10.1582 3.1857 10.4073 3.43156C10.9014 3.8933 11.2153 4.60092 11.4047 5.24967C10.6728 5.41013 9.90399 5.00264 9.52767 4.77177C8.93202 4.40583 8.0778 3.38654 8.51068 2.97558Z" fill="#EBEBEB"/>
  <path d="M12.6844 5.38079C12.5083 5.29735 12.3574 5.16885 12.2469 5.0083C12.1364 4.84775 12.0703 4.66085 12.0553 4.46654C12.0429 4.27161 12.0695 4.07617 12.1335 3.89164C12.1975 3.70711 12.2977 3.5372 12.4282 3.39183C12.4816 3.31791 12.5507 3.2567 12.6305 3.2126C12.7103 3.1685 12.7989 3.14258 12.8899 3.13672C12.974 3.14404 13.0546 3.17383 13.1232 3.22298C13.1919 3.27212 13.246 3.33882 13.2801 3.41607C13.3467 3.57168 13.371 3.74212 13.3505 3.91014C13.3055 4.48732 13.1566 5.03564 12.6937 5.38079" fill="#EBEBEB"/>
  <path d="M13.8293 7.22056C13.8293 7.22056 13.7912 7.18939 13.7312 7.12359C13.6711 7.0578 13.5846 6.96198 13.483 6.83962C13.2132 6.52145 12.9872 6.16853 12.8112 5.79031C12.6315 5.40893 12.5566 4.98659 12.5941 4.56669C12.6084 4.44032 12.6371 4.316 12.6796 4.19614C12.6935 4.15176 12.7133 4.10944 12.7384 4.07031C12.6901 4.23366 12.6561 4.40091 12.6368 4.57015C12.6129 4.98143 12.6922 5.39217 12.8677 5.76491C13.0424 6.13889 13.2609 6.49075 13.5188 6.81307L13.7496 7.10859C13.7803 7.14283 13.807 7.18039 13.8293 7.22056Z" fill="#E0E0E0"/>
  <path d="M9.22986 3.69531C9.24823 3.7029 9.26566 3.71259 9.28181 3.72417L9.42495 3.81652C9.54846 3.89733 9.72508 4.01853 9.9421 4.16975C10.375 4.4722 10.9649 4.90393 11.6032 5.39684C12.2416 5.88975 12.8107 6.34918 13.2193 6.6851L13.6995 7.08567L13.8288 7.2011C13.8445 7.213 13.8585 7.22698 13.8704 7.24266C13.8525 7.23406 13.8358 7.2232 13.8207 7.21034L13.6845 7.1076L13.1916 6.71396C12.7772 6.38612 12.2046 5.93246 11.5674 5.44417C10.9302 4.95587 10.3438 4.52068 9.9167 4.20439L9.41109 3.83614L9.27488 3.73456C9.24371 3.71263 9.2287 3.69762 9.22986 3.69531Z" fill="#E0E0E0"/>
  <path d="M12.4361 6.44736C12.074 6.25074 11.6703 6.14316 11.2584 6.13352C10.8465 6.12389 10.4382 6.21247 10.0674 6.39195C9.88036 6.4843 9.68181 6.64244 9.69682 6.85369C9.71182 7.06494 9.92769 7.19076 10.1332 7.25079C10.5541 7.36974 11.0008 7.36141 11.417 7.22686C11.8332 7.0923 12.2003 6.83754 12.4719 6.49469" fill="#EBEBEB"/>
  <path d="M10.6285 6.72078C10.6641 6.69375 10.7028 6.67125 10.7439 6.65382C10.7896 6.6277 10.8375 6.60568 10.8871 6.58803C10.9516 6.56012 11.0179 6.53659 11.0856 6.51761C11.1665 6.49154 11.249 6.4711 11.3327 6.45643C11.4284 6.43765 11.5252 6.42416 11.6224 6.41603C11.8461 6.40227 12.0705 6.41271 12.2919 6.44719C12.5124 6.48585 12.7283 6.54736 12.9361 6.63074C13.1052 6.69937 13.2675 6.78362 13.4209 6.88239C13.4805 6.91798 13.5383 6.95651 13.5941 6.99782C13.6368 7.02801 13.6777 7.06078 13.7164 7.09594C13.7524 7.12311 13.7849 7.15451 13.8134 7.18945C13.8065 7.19984 13.6622 7.07401 13.399 6.91356C13.0559 6.71152 12.6787 6.57382 12.2862 6.50722C12.0698 6.47303 11.8505 6.46104 11.6316 6.47144C11.5361 6.47779 11.4409 6.48897 11.3465 6.50491C11.2639 6.5176 11.1822 6.53534 11.1018 6.55801C10.8017 6.63882 10.6331 6.73348 10.6285 6.72078Z" fill="#E0E0E0"/>
  <path d="M45.6469 46.53C45.6469 46.5473 35.4355 46.56 22.8414 46.56C10.2474 46.56 0.0301208 46.5427 0.0301208 46.53C0.0301208 46.5173 10.2393 46.5 22.8368 46.5C35.4343 46.5 45.6469 46.5139 45.6469 46.53Z" fill="#263238"/>
  <path d="M5.46712 11.729C5.46712 11.729 5.48443 11.7498 5.51329 11.7913L5.63912 11.9726L6.11471 12.6652C6.116 12.6665 6.11703 12.668 6.11773 12.6697C6.11843 12.6714 6.11879 12.6732 6.11879 12.675C6.11879 12.6768 6.11843 12.6786 6.11773 12.6803C6.11703 12.682 6.116 12.6835 6.11471 12.6848C6.11209 12.6857 6.10925 12.6857 6.10663 12.6848H4.77335C4.76895 12.6848 4.76471 12.6832 4.76149 12.6802C4.75828 12.6772 4.75632 12.673 4.75603 12.6687C4.75487 12.6657 4.75487 12.6624 4.75603 12.6594L4.78604 12.6848C4.4262 13.0113 3.98924 13.2409 3.51625 13.352C3.24752 13.4151 2.97084 13.4372 2.6955 13.4178C2.39978 13.403 2.10849 13.3398 1.83319 13.2308C1.54022 13.1174 1.26739 12.9576 1.02514 12.7575C0.774512 12.5487 0.562035 12.298 0.397171 12.0164C0.0518544 11.4312 -0.0740048 10.7421 0.0421005 10.0726C0.158206 9.40301 0.508704 8.79659 1.03091 8.36174C1.47681 7.99222 2.02375 7.7657 2.60035 7.71175C3.17694 7.65779 3.75641 7.77891 4.26312 8.0593C4.6799 8.29417 5.03176 8.62897 5.28704 9.03358C5.49643 9.36678 5.63439 9.73981 5.69222 10.1291C5.69914 10.1718 5.70491 10.2133 5.71069 10.2549C5.71646 10.2964 5.71069 10.338 5.71877 10.3773C5.71877 10.4581 5.728 10.5354 5.72569 10.6081C5.72326 10.7431 5.71092 10.8778 5.68875 11.011C5.65849 11.1952 5.60936 11.3759 5.54215 11.5501C5.51906 11.609 5.49944 11.6551 5.48559 11.6828C5.4793 11.6985 5.47157 11.7136 5.4625 11.7279C5.46696 11.712 5.47276 11.6966 5.47981 11.6817C5.49136 11.6505 5.50983 11.6055 5.53061 11.5455C5.59213 11.3707 5.63735 11.1906 5.66567 11.0075C5.68568 10.8753 5.6961 10.7418 5.69683 10.6081C5.69683 10.5342 5.68991 10.4581 5.6876 10.3773C5.6876 10.338 5.6876 10.2976 5.67836 10.256L5.65874 10.1314C5.58174 9.63814 5.37524 9.17418 5.06032 8.78683C4.74541 8.39949 4.33335 8.10264 3.86622 7.92658C3.39909 7.75053 2.89361 7.70157 2.40138 7.78472C1.90914 7.86786 1.44778 8.08012 1.06439 8.39984C0.573394 8.81559 0.23737 9.38512 0.11089 10.0159C-0.0200319 10.6889 0.0985584 11.3865 0.4445 11.9783C0.607145 12.2594 0.817721 12.5098 1.0667 12.7183C1.30343 12.9129 1.56955 13.0688 1.85513 13.18C2.12622 13.2905 2.41365 13.3557 2.70589 13.3728C2.97678 13.3927 3.24913 13.3721 3.51394 13.3116C3.98083 13.2048 4.41297 12.9811 4.76988 12.6617C4.77162 12.6598 4.77375 12.6582 4.77614 12.6571C4.77852 12.656 4.78112 12.6555 4.78374 12.6555C4.78636 12.6555 4.78895 12.656 4.79133 12.6571C4.79372 12.6582 4.79586 12.6598 4.79759 12.6617C4.80043 12.6649 4.802 12.669 4.802 12.6733C4.802 12.6775 4.80043 12.6816 4.79759 12.6848L4.76757 12.6583C4.78743 12.6524 4.80807 12.6497 4.82876 12.6502H5.15659H5.5029L6.10663 12.6571L6.09509 12.679C5.89423 12.3731 5.73724 12.1353 5.63334 11.9703L5.51791 11.7856C5.47635 11.7498 5.46712 11.729 5.46712 11.729Z" fill="#263238"/>
  <path d="M3.08888 10.3717C3.19872 10.3232 3.29193 10.2435 3.35697 10.1426C3.42201 10.0416 3.45602 9.92382 3.45481 9.80374C3.45481 9.65066 3.394 9.50386 3.28576 9.39562C3.17752 9.28737 3.03071 9.22656 2.87763 9.22656C2.72456 9.22656 2.57775 9.28737 2.4695 9.39562C2.36126 9.50386 2.30045 9.65066 2.30045 9.80374C2.29751 9.92551 2.33083 10.0454 2.3962 10.1482C2.46156 10.2509 2.55601 10.332 2.66754 10.3809C1.78215 10.5137 1.82255 11.4753 1.82255 11.4753L3.9154 11.4856C3.9154 11.4856 3.96619 10.5033 3.08888 10.3717Z" fill="#28A745"/>
  <path d="M40.7512 0.03125H13.4044V37.6183H40.7512V0.03125Z" fill="#FAFAFA"/>
  <path d="M36.1538 19.1484H24.4209V21.1016H36.1538V19.1484Z" fill="#EBEBEB"/>
  <path d="M25.5701 20.5957C25.4961 20.5957 25.4238 20.5737 25.3623 20.5326C25.3008 20.4916 25.2528 20.4331 25.2245 20.3648C25.1962 20.2965 25.1888 20.2213 25.2032 20.1487C25.2177 20.0762 25.2533 20.0095 25.3056 19.9572C25.3579 19.9049 25.4245 19.8693 25.4971 19.8548C25.5696 19.8404 25.6448 19.8478 25.7132 19.8761C25.7815 19.9044 25.8399 19.9524 25.881 20.0139C25.9221 20.0754 25.9441 20.1477 25.9441 20.2217C25.9441 20.3209 25.9047 20.416 25.8345 20.4861C25.7644 20.5563 25.6693 20.5957 25.5701 20.5957ZM25.5701 19.8765C25.5016 19.8765 25.4346 19.8968 25.3777 19.9349C25.3207 19.9729 25.2763 20.027 25.2501 20.0903C25.2239 20.1536 25.217 20.2232 25.2304 20.2904C25.2438 20.3576 25.2767 20.4193 25.3252 20.4677C25.3736 20.5161 25.4353 20.5491 25.5025 20.5625C25.5697 20.5758 25.6393 20.569 25.7026 20.5428C25.7659 20.5166 25.82 20.4722 25.858 20.4152C25.8961 20.3583 25.9164 20.2913 25.9164 20.2228C25.9161 20.1312 25.8794 20.0434 25.8145 19.9787C25.7496 19.914 25.6617 19.8777 25.5701 19.8777V19.8765Z" fill="#263238"/>
  <path d="M33.6832 20.2527C33.6832 20.2688 32.1248 20.2827 30.2028 20.2827C28.2808 20.2827 26.7178 20.2688 26.7178 20.2527C26.7178 20.2365 28.2762 20.2227 30.1994 20.2227C32.1225 20.2227 33.6832 20.2354 33.6832 20.2527Z" fill="#263238"/>
  <path d="M40.7512 3.30859H13.4044V10.3144H40.7512V3.30859Z" fill="#263238"/>
  <path d="M40.7512 0.03125H13.4044V2.07447H40.7512V0.03125Z" fill="#455A64"/>
  <path d="M14.3723 1.32682C14.524 1.32682 14.647 1.20381 14.647 1.05208C14.647 0.900348 14.524 0.777344 14.3723 0.777344C14.2205 0.777344 14.0975 0.900348 14.0975 1.05208C14.0975 1.20381 14.2205 1.32682 14.3723 1.32682Z" fill="#263238"/>
  <path d="M16.7028 0.993487C16.7028 1.04783 16.6867 1.10094 16.6565 1.14612C16.6263 1.1913 16.5834 1.22652 16.5332 1.24731C16.483 1.26811 16.4278 1.27355 16.3745 1.26295C16.3212 1.25235 16.2722 1.22618 16.2338 1.18776C16.1954 1.14933 16.1692 1.10038 16.1586 1.04709C16.148 0.993792 16.1535 0.938552 16.1743 0.88835C16.1951 0.838148 16.2303 0.79524 16.2755 0.765051C16.3206 0.734863 16.3737 0.71875 16.4281 0.71875C16.5009 0.719054 16.5706 0.748097 16.622 0.799554C16.6735 0.851012 16.7025 0.920716 16.7028 0.993487Z" fill="#263238"/>
  <path d="M15.7251 0.993487C15.7251 1.04783 15.709 1.10094 15.6788 1.14612C15.6486 1.1913 15.6057 1.22652 15.5555 1.24731C15.5053 1.26811 15.4501 1.27355 15.3968 1.26295C15.3435 1.25235 15.2946 1.22618 15.2561 1.18776C15.2177 1.14933 15.1915 1.10038 15.1809 1.04709C15.1703 0.993792 15.1758 0.938552 15.1966 0.88835C15.2174 0.838148 15.2526 0.79524 15.2978 0.765051C15.3429 0.734863 15.3961 0.71875 15.4504 0.71875C15.5232 0.719054 15.5929 0.748097 15.6443 0.799554C15.6958 0.851012 15.7248 0.920716 15.7251 0.993487Z" fill="#263238"/>
  <path d="M40.7512 2.07422H13.4044V3.30823H40.7512V2.07422Z" fill="#E0E0E0"/>
  <path d="M22.8046 14.9363C22.8046 14.9524 21.8892 14.9663 20.7602 14.9663C19.6313 14.9663 18.7147 14.9524 18.7147 14.9363C18.7147 14.9201 19.6301 14.9062 20.7602 14.9062C21.8904 14.9062 22.8046 14.9189 22.8046 14.9363Z" fill="#263238"/>
  <path d="M22.8046 15.8972C22.8046 15.9145 21.8892 15.9284 20.7602 15.9284C19.6313 15.9284 18.7147 15.9145 18.7147 15.8972C18.7147 15.8799 19.6301 15.8672 20.7602 15.8672C21.8904 15.8672 22.8046 15.881 22.8046 15.8972Z" fill="#263238"/>
  <path d="M21.0326 16.6899C20.6486 16.7201 20.2633 16.7301 19.8782 16.7199C19.4912 16.7303 19.104 16.7203 18.7181 16.6899C19.104 16.6601 19.4912 16.6501 19.8782 16.6598C20.2633 16.6503 20.6485 16.6603 21.0326 16.6899Z" fill="#263238"/>
  <path d="M36.2055 11.5273H24.5373V14.6037H36.2055V11.5273Z" fill="#EBEBEB"/>
  <path d="M26.1761 16.0826C26.1763 16.2028 26.1408 16.3203 26.0742 16.4204C26.0076 16.5204 25.9128 16.5984 25.8018 16.6445C25.6908 16.6906 25.5686 16.7027 25.4507 16.6793C25.3328 16.6559 25.2245 16.5981 25.1395 16.5131C25.0545 16.4281 24.9967 16.3198 24.9733 16.2019C24.9499 16.084 24.962 15.9619 25.0081 15.8509C25.0542 15.7399 25.1322 15.645 25.2322 15.5784C25.3323 15.5118 25.4498 15.4763 25.57 15.4766C25.7307 15.4766 25.8849 15.5404 25.9986 15.6541C26.1122 15.7677 26.1761 15.9219 26.1761 16.0826Z" fill="#E0E0E0"/>
  <path d="M36.1539 15.6472C36.1539 15.6634 34.1995 15.6772 31.7892 15.6772C29.3789 15.6772 27.4234 15.6634 27.4234 15.6472C27.4234 15.631 29.3778 15.6172 31.7892 15.6172C34.2007 15.6172 36.1539 15.6299 36.1539 15.6472Z" fill="#263238"/>
  <path d="M31.9497 16.5144C31.9497 16.5317 30.9361 16.5444 29.6871 16.5444C28.4381 16.5444 27.4234 16.5317 27.4234 16.5144C27.4234 16.4971 28.437 16.4844 29.6871 16.4844C30.9373 16.4844 31.9497 16.4982 31.9497 16.5144Z" fill="#263238"/>
  <path d="M36.1545 17.4961H33.8319V17.8159H36.1545V17.4961Z" fill="#28A745"/>
  <path d="M36.1545 24.9375H33.8319V25.2573H36.1545V24.9375Z" fill="#28A745"/>
  <path d="M33.8319 22.0769C33.8319 22.0942 31.799 22.1069 29.2906 22.1069C26.7822 22.1069 24.7482 22.0942 24.7482 22.0769C24.7482 22.0596 26.7822 22.0469 29.2906 22.0469C31.799 22.0469 33.8319 22.0607 33.8319 22.0769Z" fill="#263238"/>
  <path d="M33.8319 22.8581C33.8319 22.8755 31.799 22.8882 29.2906 22.8882C26.7822 22.8882 24.7482 22.8755 24.7482 22.8581C24.7482 22.8408 26.7822 22.8281 29.2906 22.8281C31.799 22.8281 33.8319 22.842 33.8319 22.8581Z" fill="#263238"/>
  <path d="M33.8319 23.6355C33.8319 23.6528 31.799 23.6655 29.2906 23.6655C26.7822 23.6655 24.7482 23.6528 24.7482 23.6355C24.7482 23.6182 26.7822 23.6055 29.2906 23.6055C31.799 23.6055 33.8319 23.6193 33.8319 23.6355Z" fill="#263238"/>
  <path d="M27.6652 25.039C27.6652 25.0551 27.0315 25.069 26.2488 25.069C25.4662 25.069 24.8336 25.0551 24.8336 25.039C24.8336 25.0228 25.4673 25.0078 26.2488 25.0078C27.0303 25.0078 27.6652 25.0217 27.6652 25.039Z" fill="#263238"/>
  <path d="M36.1538 27.0078H24.4209V34.0332H36.1538V27.0078Z" fill="#455A64"/>
  <path d="M24.4209 34.0305L29.29 30.8445L30.7815 31.9065L33.8313 29.8633L36.1538 31.6606V34.0305H24.4209Z" fill="#263238"/>
  <path d="M31.119 30.2521C31.578 30.2521 31.9501 29.88 31.9501 29.421C31.9501 28.962 31.578 28.5898 31.119 28.5898C30.66 28.5898 30.2878 28.962 30.2878 29.421C30.2878 29.88 30.66 30.2521 31.119 30.2521Z" fill="#263238"/>
  <path d="M19.6928 18.4727H18.4703V19.6951H19.6928V18.4727Z" fill="#E0E0E0"/>
  <path d="M21.1794 18.4727H19.9569V19.6951H21.1794V18.4727Z" fill="#EBEBEB"/>
  <path d="M22.6794 18.4727H21.4569V19.6951H22.6794V18.4727Z" fill="#EBEBEB"/>
  <path d="M19.6928 19.9336H18.4703V21.1561H19.6928V19.9336Z" fill="#EBEBEB"/>
  <path d="M21.1794 19.9336H19.9569V21.1561H21.1794V19.9336Z" fill="#F5F5F5"/>
  <path d="M22.6794 19.9336H21.4569V21.1561H22.6794V19.9336Z" fill="#E0E0E0"/>
  <path d="M19.6928 21.3945H18.4703V22.617H19.6928V21.3945Z" fill="#E0E0E0"/>
  <path d="M21.1794 21.3945H19.9569V22.617H21.1794V21.3945Z" fill="#EBEBEB"/>
  <path d="M22.6794 21.3945H21.4569V22.617H22.6794V21.3945Z" fill="#E0E0E0"/>
  <path d="M24.1187 4.88045L17.3369 4.92188L17.3784 11.7036L24.1601 11.6622L24.1187 4.88045Z" fill="#28A745"/>
  <path opacity="0.2" d="M22.1872 8.43559C22.1653 8.46047 22.1541 8.49296 22.1561 8.52603C22.158 8.55909 22.1729 8.59006 22.1975 8.6122C22.2222 8.63425 22.2546 8.6456 22.2876 8.64376C22.3206 8.64192 22.3515 8.62704 22.3736 8.60239C22.3956 8.57774 22.407 8.54535 22.4051 8.51234C22.4033 8.47932 22.3884 8.44839 22.3638 8.42635C22.339 8.40435 22.3066 8.39297 22.2736 8.3947C22.2405 8.39643 22.2095 8.41112 22.1872 8.43559Z" fill="black"/>
  <path opacity="0.2" d="M22.4833 8.30687C22.4331 8.26993 22.3724 8.25 22.3101 8.25C22.2478 8.25 22.1872 8.26993 22.137 8.30687C22.1 8.33573 22.0862 8.36343 22.0931 8.3692C22.1 8.37497 22.1912 8.32187 22.309 8.32303C22.4267 8.32418 22.5122 8.38767 22.5249 8.37266C22.5376 8.35766 22.5202 8.33342 22.4833 8.30687Z" fill="black"/>
  <path opacity="0.2" d="M21.0887 8.47821C21.0603 8.46156 21.0265 8.45671 20.9946 8.46469C20.9626 8.47268 20.9351 8.49286 20.9179 8.52092C20.9093 8.53484 20.9035 8.55032 20.901 8.56648C20.8984 8.58263 20.8991 8.59914 20.9029 8.61503C20.9068 8.63092 20.9138 8.64589 20.9235 8.65906C20.9332 8.67224 20.9454 8.68335 20.9594 8.69176C20.9878 8.70887 21.0218 8.71411 21.054 8.70633C21.0862 8.69855 21.114 8.67838 21.1314 8.65021C21.1481 8.62163 21.153 8.58765 21.145 8.55552C21.1371 8.5234 21.1169 8.49565 21.0887 8.47821Z" fill="black"/>
  <path opacity="0.2" d="M21.2023 8.4171C21.1529 8.37941 21.0924 8.35912 21.0303 8.35938C20.9682 8.35927 20.9076 8.37865 20.8571 8.41479C20.8202 8.44365 20.8063 8.4702 20.8133 8.47712C20.8202 8.48405 20.9114 8.42979 21.0303 8.43095C21.1492 8.4321 21.2323 8.49444 21.2462 8.47943C21.26 8.46442 21.2392 8.44711 21.2023 8.4171Z" fill="black"/>
  <path opacity="0.2" d="M21.9156 9.03182C21.8472 8.82122 21.7574 8.61815 21.6478 8.42578C21.695 8.64185 21.7638 8.85262 21.8532 9.05491C21.8856 9.13802 21.9179 9.21652 21.9479 9.29501C21.9638 9.32148 21.9718 9.35191 21.971 9.38275C21.971 9.40006 21.9444 9.40699 21.9133 9.41045C21.8479 9.4134 21.7835 9.42745 21.7228 9.45201C21.787 9.46484 21.853 9.46679 21.9179 9.45778C21.9358 9.45739 21.9536 9.45507 21.971 9.45085C21.9829 9.44699 21.9939 9.44054 22.0031 9.43196C22.0123 9.42338 22.0194 9.41288 22.0241 9.40121C22.0323 9.35764 22.0258 9.31256 22.0056 9.27308C21.9825 9.19458 21.9467 9.11493 21.9156 9.03182Z" fill="black"/>
  <path opacity="0.1" d="M20.6835 10.5898C20.6835 10.5898 20.9513 11.2063 21.8067 11.1232V10.9015C21.4096 10.912 21.0184 10.8034 20.6835 10.5898Z" fill="white"/>
  <path opacity="0.2" d="M22.5318 7.42291L22.5202 7.43099H22.5133C22.1479 7.57309 21.741 7.56437 21.382 7.40675C20.9203 7.2209 20.3939 7.15395 20.2865 7.25207C20.1792 7.35019 20.1919 7.81078 19.7625 7.97932C19.7625 7.97932 19.8594 8.82777 19.5235 8.84508H19.5166C19.5073 8.65115 19.4993 8.47107 19.4993 8.47107C19.4762 8.46418 19.4526 8.45878 19.4288 8.45491C19.3453 8.44003 19.2596 8.44278 19.1772 8.46299C19.0433 8.50109 18.9209 8.60959 18.9313 8.88664C18.9486 9.34838 19.3157 9.35762 19.4704 9.33107L19.5858 11.6883L21.8126 11.6744C21.8207 11.4943 21.8126 11.3662 21.8126 11.2069V11.1215C20.9572 11.2046 20.6894 10.5882 20.6894 10.5882C21.0233 10.8011 21.4132 10.9096 21.8091 10.8998V10.9114C21.8253 10.9114 22.6645 10.7648 22.6691 9.91518C22.6657 9.27797 22.5768 8.02087 22.5318 7.42291ZM19.3261 9.12906C19.3129 9.13845 19.2978 9.14496 19.2819 9.14814C19.266 9.15132 19.2496 9.15111 19.2338 9.14753C19.1859 9.12649 19.1453 9.09186 19.117 9.04794C19.0887 9.00402 19.0739 8.95275 19.0745 8.90049C19.0708 8.84384 19.0811 8.78715 19.1045 8.73542C19.1121 8.71218 19.1255 8.69128 19.1435 8.67471C19.1615 8.65814 19.1834 8.64645 19.2072 8.64076C19.2274 8.63744 19.248 8.64198 19.2649 8.65346C19.2767 8.66244 19.2852 8.675 19.2892 8.68925C19.2949 8.71349 19.2892 8.72503 19.2822 8.72388C19.2753 8.72272 19.2822 8.71118 19.2742 8.69502C19.2685 8.68433 19.2593 8.67594 19.2481 8.6713C19.237 8.66667 19.2245 8.66607 19.213 8.66962C19.1949 8.67592 19.1787 8.68661 19.1658 8.70071C19.153 8.71481 19.1438 8.7319 19.1391 8.75043C19.1205 8.79734 19.1126 8.84783 19.116 8.89819C19.1154 8.94298 19.1267 8.98715 19.1488 9.02611C19.1709 9.06507 19.203 9.09742 19.2418 9.11982C19.2663 9.12947 19.2935 9.12947 19.318 9.11982C19.3342 9.11174 19.3423 9.10251 19.3446 9.10366C19.3469 9.10482 19.3492 9.11405 19.3261 9.12906ZM22.212 8.05204C22.3805 8.0428 22.4983 8.12592 22.4833 8.15362C22.4683 8.18133 22.3551 8.16401 22.2189 8.17209C22.0827 8.18017 21.9696 8.21134 21.9534 8.18133C21.9373 8.15131 22.04 8.06012 22.212 8.05204ZM20.6375 8.07859C20.6375 8.04396 20.7598 8.0278 20.9006 8.02203L21.0784 8.01279C21.1223 8.01279 21.1523 8.01279 21.1615 8.02318C21.1708 8.03357 21.1511 8.0682 21.1027 8.09475C21.0411 8.12356 20.9744 8.13965 20.9064 8.14208C20.7483 8.14785 20.6305 8.11091 20.6328 8.07859H20.6375ZM21.135 8.65577C21.1176 8.68394 21.0897 8.70411 21.0575 8.71189C21.0253 8.71967 20.9914 8.71444 20.963 8.69733C20.949 8.68891 20.9367 8.6778 20.927 8.66463C20.9173 8.65145 20.9104 8.63649 20.9065 8.62059C20.9026 8.6047 20.902 8.58819 20.9045 8.57204C20.9071 8.55588 20.9128 8.5404 20.9214 8.52648C20.9387 8.49843 20.9662 8.47824 20.9981 8.47026C21.0301 8.46227 21.0639 8.46712 21.0923 8.48377C21.119 8.5019 21.1379 8.52954 21.1449 8.56107C21.152 8.5926 21.1468 8.62564 21.1304 8.65346L21.135 8.65577ZM21.2504 8.48377C21.2366 8.49878 21.1523 8.43529 21.0346 8.43529C20.9168 8.43529 20.8302 8.49647 20.8175 8.48146C20.8048 8.46645 20.8245 8.44798 20.8614 8.41913C20.9119 8.38299 20.9725 8.36361 21.0346 8.36372C21.0967 8.36346 21.1572 8.38375 21.2066 8.42144C21.2354 8.44914 21.2481 8.47569 21.2423 8.48146L21.2504 8.48377ZM21.5725 9.76049C21.4155 9.70739 21.3416 9.58272 21.3601 9.57579C21.3786 9.56887 21.4547 9.65891 21.591 9.70393C21.6769 9.72346 21.764 9.73697 21.8518 9.74433C21.8091 9.77105 21.7603 9.78635 21.7099 9.78877C21.6596 9.7912 21.6095 9.78067 21.5644 9.75818L21.5725 9.76049ZM22.0342 9.40495C22.0296 9.41662 22.0224 9.42712 22.0132 9.4357C22.004 9.44428 21.9931 9.45073 21.9811 9.45459C21.9637 9.4588 21.9459 9.46113 21.928 9.46151C21.8631 9.47052 21.7972 9.46857 21.7329 9.45574C21.7936 9.43119 21.858 9.41714 21.9234 9.41418C21.9546 9.41418 21.9788 9.40379 21.9811 9.38648C21.9819 9.35564 21.9739 9.32521 21.958 9.29875C21.928 9.22025 21.8957 9.14176 21.8634 9.05864C21.774 8.85635 21.7051 8.64558 21.6579 8.42952C21.7676 8.62189 21.8573 8.82495 21.9257 9.03555C21.9569 9.11867 21.9869 9.19832 22.0158 9.27681C22.0316 9.31691 22.034 9.36105 22.0227 9.40264L22.0342 9.40495ZM22.3805 8.60729C22.3586 8.63184 22.3278 8.64672 22.2949 8.64866C22.2621 8.65061 22.2298 8.63947 22.2051 8.61768C22.1929 8.60676 22.1829 8.59355 22.1758 8.5788C22.1687 8.56404 22.1646 8.54803 22.1637 8.53169C22.1628 8.51534 22.1651 8.49898 22.1705 8.48352C22.1759 8.46807 22.1843 8.45384 22.1953 8.44164C22.2062 8.42943 22.2194 8.4195 22.2341 8.4124C22.2489 8.4053 22.2649 8.40118 22.2813 8.40027C22.2976 8.39936 22.314 8.40168 22.3294 8.40709C22.3449 8.4125 22.3591 8.42091 22.3713 8.43182C22.3934 8.45536 22.4055 8.48657 22.4051 8.51887C22.4047 8.55117 22.3917 8.58204 22.369 8.60498L22.3805 8.60729ZM22.5352 8.37642C22.5225 8.39142 22.4383 8.32678 22.3194 8.32678C22.2005 8.32678 22.1162 8.38796 22.1035 8.37295C22.0908 8.35794 22.1104 8.33948 22.1474 8.31062C22.1975 8.27368 22.2582 8.25375 22.3205 8.25375C22.3828 8.25375 22.4435 8.27368 22.4937 8.31062C22.5179 8.3337 22.5306 8.36372 22.5237 8.37064L22.5352 8.37642Z" fill="white"/>
  <path opacity="0.1" d="M19.2503 9.11684C19.2115 9.09444 19.1794 9.06209 19.1572 9.02313C19.1351 8.98416 19.1238 8.94 19.1245 8.8952C19.121 8.84484 19.1289 8.79436 19.1476 8.74745C19.1522 8.72891 19.1614 8.71183 19.1743 8.69773C19.1872 8.68362 19.2034 8.67294 19.2214 8.66664C19.233 8.66309 19.2454 8.66369 19.2566 8.66832C19.2678 8.67296 19.277 8.68134 19.2826 8.69204C19.2907 8.7082 19.2826 8.71974 19.2907 8.72089C19.2988 8.72205 19.3034 8.71051 19.2976 8.68626C19.2936 8.67202 19.2851 8.65946 19.2734 8.65048C19.2565 8.639 19.2358 8.63446 19.2157 8.63778C19.1919 8.64347 19.1699 8.65516 19.152 8.67173C19.134 8.6883 19.1205 8.7092 19.1129 8.73244C19.0895 8.78417 19.0792 8.84086 19.0829 8.89751C19.0823 8.94977 19.0971 9.00104 19.1255 9.04496C19.1538 9.08888 19.1944 9.12351 19.2422 9.14455C19.258 9.14813 19.2744 9.14834 19.2904 9.14516C19.3063 9.14197 19.3213 9.13547 19.3346 9.12608C19.353 9.11107 19.3553 9.09722 19.353 9.09606C19.3507 9.09491 19.3426 9.10414 19.3265 9.11222C19.3026 9.12337 19.2754 9.12502 19.2503 9.11684Z" fill="white"/>
  <path opacity="0.2" d="M19.4611 6.76911C19.4738 6.75987 19.4173 6.67214 19.2995 6.63635C19.1818 6.60057 19.0848 6.63635 19.0917 6.65598C19.0987 6.6756 19.1829 6.6629 19.2822 6.69407C19.3815 6.72524 19.4438 6.78065 19.4611 6.76911Z" fill="black"/>
  <path opacity="0.2" d="M19.5533 6.79654C19.5203 6.71647 19.4925 6.63434 19.4702 6.55066C19.4631 6.46092 19.4476 6.37204 19.424 6.28516C19.3884 6.37377 19.3839 6.47187 19.4113 6.56336C19.4259 6.65595 19.4724 6.74051 19.5429 6.80231C19.5429 6.80231 19.551 6.80231 19.5522 6.80231C19.5533 6.80231 19.5545 6.8 19.5533 6.79654Z" fill="black"/>
  <path opacity="0.2" d="M22.2166 8.17238C22.3529 8.1643 22.4671 8.18623 22.481 8.15391C22.4948 8.12159 22.3783 8.03847 22.2097 8.05232C22.0412 8.06618 21.9327 8.15391 21.9511 8.18161C21.9696 8.20932 22.0816 8.17815 22.2166 8.17238Z" fill="black"/>
  <path opacity="0.2" d="M20.9056 8.14167C20.9735 8.13925 21.0402 8.12315 21.1018 8.09434C21.1503 8.06779 21.1699 8.03547 21.1607 8.02277C21.1514 8.01008 21.1214 8.01123 21.0776 8.01239L20.8998 8.02162C20.759 8.02162 20.6378 8.04355 20.6366 8.07818C20.6355 8.11281 20.752 8.14744 20.9056 8.14167Z" fill="black"/>
  <path opacity="0.2" d="M21.3543 9.57111C21.3393 9.57804 21.4097 9.70271 21.5667 9.75581C21.6111 9.77671 21.66 9.78618 21.709 9.78336C21.758 9.78053 21.8055 9.76551 21.8472 9.73965C21.7594 9.73228 21.6722 9.71878 21.5863 9.69925C21.4489 9.65423 21.3681 9.56072 21.3543 9.57111Z" fill="black"/>
  <path opacity="0.2" d="M22.5827 6.02183C22.435 5.88895 22.2505 5.80393 22.0535 5.77796C21.8565 5.752 21.6563 5.78631 21.4792 5.87638C21.3176 5.96296 21.1802 6.09456 21.0059 6.14997C20.797 6.21576 20.5719 6.1592 20.3537 6.14304C20.1355 6.12688 19.8804 6.17074 19.7707 6.36006C19.7003 6.47549 19.7038 6.64288 19.608 6.74677C19.5921 6.76461 19.5739 6.78015 19.5537 6.79294C19.5537 6.79294 19.5537 6.79294 19.5537 6.79987C19.5537 6.8068 19.5537 6.79987 19.5445 6.79987C19.4094 6.88067 19.2178 6.85759 19.0608 6.91531C18.9714 6.94942 18.8931 7.00757 18.8347 7.08335C18.7762 7.15912 18.7398 7.24958 18.7295 7.34473C18.7214 7.43988 18.7356 7.5356 18.7709 7.62435C18.8061 7.71309 18.8615 7.79243 18.9327 7.85611C19.0224 7.91917 19.1005 7.99728 19.1635 8.08698C19.2083 8.2092 19.214 8.34234 19.1797 8.46792C19.2621 8.44771 19.3478 8.44495 19.4313 8.45984C19.4551 8.46371 19.4787 8.46911 19.5018 8.476C19.5018 8.476 19.5098 8.65608 19.5191 8.85001H19.526C19.8619 8.8327 19.765 7.98424 19.765 7.98424C20.1944 7.81571 20.1817 7.35512 20.289 7.257C20.3964 7.15888 20.9228 7.22583 21.3845 7.41168C21.7435 7.5693 22.1504 7.57801 22.5158 7.43592H22.5227L22.5343 7.42784L22.5631 7.40706L22.5885 7.39321C22.6822 7.32373 22.7555 7.23047 22.8009 7.12309C22.8814 6.93922 22.9037 6.73511 22.8646 6.53822C22.8256 6.34134 22.7273 6.16112 22.5827 6.02183Z" fill="black"/>
  <path d="M40.7246 0.0323219L40.7511 0.0600267H13.4078L13.439 0.0300136C13.439 14.0774 13.439 27.0813 13.4332 37.6171L13.4078 37.5929L40.7546 37.6171L13.4078 37.6425H13.3836V37.6171C13.3836 27.0813 13.3836 14.0774 13.3778 0.0300136V0H13.4113H40.7546H40.7823V0.0265502C40.7661 22.2618 40.7557 37.3735 40.7546 37.6137" fill="#263238"/>
  <path d="M3.72993 26.356L3.87884 26.6735C3.94088 26.8603 4.02131 27.0405 4.11895 27.2114C4.16617 27.2979 4.22741 27.3759 4.30018 27.4423C4.38809 27.5269 4.48712 27.5991 4.59454 27.657C4.61572 27.6657 4.63383 27.6805 4.64657 27.6995C4.65931 27.7185 4.66612 27.7409 4.66612 27.7638C4.66612 27.7867 4.65931 27.809 4.64657 27.8281C4.63383 27.8471 4.61572 27.8619 4.59454 27.8706C4.49527 27.8948 4.20668 27.784 3.9608 27.5243C3.71492 27.2645 3.75302 27.8278 3.76225 28.0345C3.77149 28.2411 3.77495 28.8818 3.71377 28.936C3.62373 29.0145 3.5233 28.936 3.51753 28.7259C3.51176 28.5158 3.45288 27.9006 3.34322 27.911C3.23356 27.9213 3.30282 28.973 3.30282 28.973C3.30282 28.973 3.35361 29.1958 3.22778 29.2131C2.99691 29.2419 3.01307 28.1187 3.01654 28.0114C3.01654 27.9375 2.9011 27.9444 2.9011 28.0252C2.9011 28.106 2.99114 29.0722 2.76142 29.1057C2.58481 29.13 2.76142 28.1822 2.63329 27.9906C2.50515 27.799 2.57095 28.7248 2.40242 28.7409C2.34008 28.7479 2.28698 28.7409 2.32854 28.2076C2.37009 27.6743 2.71409 26.1875 2.71409 26.1875L3.74609 26.371" fill="#FFBE9D"/>
  <path d="M7.8272 18.4842C7.8272 18.4842 4.59499 21.6391 4.5188 22.0477C4.44261 22.4564 3.97741 26.9849 3.97741 26.9849L2.49983 26.8383C2.49983 26.8383 2.3613 21.2558 2.82305 20.6867C3.28479 20.1176 5.13177 17.9844 5.13177 17.9844L7.8272 18.4842Z" fill="#FFBE9D"/>
  <path d="M2.96062 21.2784C2.96062 21.2784 2.93984 21.2668 2.91791 21.2333C2.88673 21.185 2.8714 21.1281 2.87404 21.0706C2.87493 21.0272 2.88581 20.9847 2.90583 20.9463C2.92586 20.9078 2.95448 20.8745 2.98948 20.8489C3.03252 20.8163 3.08372 20.7961 3.13748 20.7906C3.19123 20.7851 3.24546 20.7945 3.29423 20.8178C3.34647 20.8435 3.38752 20.8874 3.40966 20.9413C3.42995 20.9917 3.42995 21.0479 3.40966 21.0983C3.40034 21.1192 3.38679 21.1379 3.36988 21.1534C3.35296 21.1688 3.33304 21.1806 3.31137 21.1879C3.28969 21.1953 3.26673 21.1981 3.24391 21.1962C3.2211 21.1943 3.19893 21.1877 3.17879 21.1768C3.1529 21.1604 3.13318 21.1358 3.12274 21.107C3.11229 21.0782 3.11171 21.0467 3.12107 21.0175C3.13608 20.9771 3.16032 20.9667 3.16032 20.969C3.16032 20.9713 3.14647 20.9875 3.1407 21.0221C3.1348 21.0457 3.13653 21.0707 3.14565 21.0933C3.15478 21.1159 3.17082 21.135 3.19149 21.1479C3.20714 21.1552 3.2241 21.1593 3.24135 21.1599C3.25861 21.1605 3.27581 21.1577 3.29195 21.1516C3.30809 21.1454 3.32283 21.1361 3.33532 21.1242C3.34781 21.1123 3.35778 21.098 3.36464 21.0821C3.3793 21.045 3.3793 21.0038 3.36464 20.9667C3.3475 20.9243 3.3149 20.8901 3.27345 20.8709C3.23285 20.8512 3.18764 20.8429 3.14268 20.847C3.09773 20.851 3.05474 20.8673 3.01834 20.894C2.98626 20.9144 2.95922 20.9419 2.93923 20.9743C2.91925 21.0066 2.90683 21.0431 2.9029 21.081C2.90254 21.151 2.9226 21.2196 2.96062 21.2784Z" fill="#EB996E"/>
  <path d="M14.623 10.4297C14.6011 10.4909 14.3171 14.5704 14.3171 14.5704L15.954 14.4457L16.3592 10.896L14.623 10.4297Z" fill="#455A64"/>
  <path d="M14.3166 14.5691L14.0961 14.5056L14.4124 10.3672L14.6491 10.4353L14.3166 14.5691Z" fill="#263238"/>
  <path d="M15.5605 11.4963C15.6134 11.4963 15.6563 11.4534 15.6563 11.4005C15.6563 11.3476 15.6134 11.3047 15.5605 11.3047C15.5076 11.3047 15.4647 11.3476 15.4647 11.4005C15.4647 11.4534 15.5076 11.4963 15.5605 11.4963Z" fill="#263238"/>
  <path d="M13.7652 16.5933L16.6511 17.3425L16.1951 13.9232L16.1362 13.7593L15.0788 13.5966L15.2047 12.8162C15.2202 12.7298 15.2535 12.6475 15.3025 12.5746C15.3514 12.5017 15.4149 12.4397 15.489 12.3925C15.563 12.3454 15.646 12.314 15.7328 12.3005C15.8196 12.287 15.9082 12.2916 15.9931 12.3141L16.3394 12.4064C16.4627 12.4384 16.5778 12.4961 16.6773 12.5757C16.7767 12.6552 16.8583 12.7549 16.9166 12.8682C17.1163 13.2606 17.3125 13.6901 17.2941 13.6531L18.8409 17.8504C18.9758 18.1194 19.0314 18.4213 19.0011 18.7208C18.9709 19.0202 18.8561 19.3049 18.6701 19.5415C18.1714 20.1891 16.9674 19.7389 16.4006 19.6292L12.7066 18.8154L13.7652 16.5933Z" fill="#FFBE9D"/>
  <path d="M8.0076 12.4244C8.01902 12.4576 8.02074 12.4934 8.01257 12.5275C8.00439 12.5617 7.98665 12.5928 7.96143 12.6172C7.93564 12.6407 7.90362 12.6562 7.86922 12.662C7.83482 12.6677 7.7995 12.6634 7.76749 12.6495C7.64513 12.5964 7.62204 12.4348 7.6382 12.3032C7.65437 12.1716 7.6913 12.0296 7.62897 11.9119C7.57055 11.8293 7.49784 11.7577 7.41426 11.7007C7.34892 11.6407 7.29827 11.5665 7.26624 11.4838C7.23421 11.4012 7.22166 11.3122 7.22956 11.2239C7.23974 11.136 7.27401 11.0526 7.32861 10.9829C7.3832 10.9132 7.45599 10.86 7.53893 10.8291C7.70977 10.7702 7.92679 10.8118 8.04916 10.6802C8.13689 10.5832 8.13458 10.4343 8.20153 10.3212C8.30427 10.1469 8.54091 10.1076 8.74293 10.1238C8.94494 10.14 9.15272 10.1931 9.34781 10.1342C9.50942 10.0846 9.63756 9.96219 9.78762 9.88369C9.95154 9.79728 10.1384 9.76432 10.322 9.78945C10.5056 9.81458 10.6767 9.89653 10.8114 10.0238C10.946 10.1511 11.0375 10.3173 11.0729 10.4992C11.1084 10.6811 11.086 10.8695 11.0089 11.0381C10.9586 11.1613 10.8667 11.263 10.7492 11.3255" fill="#263238"/>
  <path d="M8.20824 15.8697L10.1199 15.722C10.1314 15.4992 10.1199 14.6357 10.1199 14.6357C10.1199 14.6357 10.9152 14.5122 10.9279 13.7122C10.9406 12.9123 10.7998 11.0918 10.7998 11.0918C10.3478 10.8978 9.85225 10.8276 9.36413 10.8885C8.87602 10.9493 8.41291 11.1391 8.02239 11.4382L7.90695 11.5293L8.20824 15.8697Z" fill="#FFBE9D"/>
  <path d="M10.61 12.4544C10.5873 12.4338 10.5738 12.4052 10.5723 12.3747C10.5708 12.3442 10.5814 12.3143 10.6019 12.2916C10.6121 12.2804 10.6244 12.2713 10.6382 12.2649C10.6519 12.2584 10.6668 12.2547 10.682 12.254C10.6972 12.2533 10.7123 12.2556 10.7266 12.2608C10.7409 12.266 10.754 12.2739 10.7652 12.2841C10.7764 12.2943 10.7855 12.3067 10.792 12.3204C10.7984 12.3342 10.8021 12.3491 10.8028 12.3642C10.8035 12.3794 10.8012 12.3945 10.796 12.4088C10.7909 12.4231 10.7829 12.4362 10.7727 12.4474C10.752 12.4699 10.7233 12.4832 10.6928 12.4845C10.6623 12.4858 10.6325 12.475 10.61 12.4544Z" fill="#263238"/>
  <path d="M10.8022 12.2733C10.7895 12.2871 10.7121 12.2271 10.6025 12.2271C10.4928 12.2271 10.4131 12.2825 10.4016 12.2687C10.3901 12.2548 10.4074 12.2375 10.442 12.211C10.4893 12.1777 10.5458 12.16 10.6036 12.1602C10.6613 12.1607 10.7173 12.1802 10.7629 12.2156C10.7964 12.2421 10.8079 12.2675 10.8022 12.2733Z" fill="#263238"/>
  <path d="M9.54042 12.3727C9.55981 12.3847 9.57521 12.4022 9.58469 12.4229C9.59416 12.4437 9.59729 12.4667 9.59366 12.4893C9.59004 12.5118 9.57983 12.5327 9.56433 12.5494C9.54882 12.5661 9.52871 12.5779 9.50654 12.5832C9.48437 12.5885 9.46112 12.5871 9.43973 12.5792C9.41834 12.5713 9.39977 12.5573 9.38636 12.5388C9.37294 12.5204 9.36529 12.4984 9.36435 12.4756C9.36342 12.4528 9.36926 12.4303 9.38112 12.4108C9.38905 12.3978 9.39946 12.3865 9.41177 12.3776C9.42408 12.3686 9.43804 12.3622 9.45285 12.3586C9.46765 12.3551 9.48301 12.3545 9.49804 12.3569C9.51307 12.3594 9.52748 12.3647 9.54042 12.3727Z" fill="#263238"/>
  <path d="M9.61419 12.3749C9.60149 12.3888 9.52299 12.3287 9.41333 12.3276C9.30367 12.3264 9.22517 12.3842 9.21247 12.3703C9.19977 12.3564 9.2194 12.3391 9.25403 12.3126C9.30039 12.2783 9.35684 12.2604 9.41448 12.2618C9.47199 12.2625 9.52778 12.2815 9.57379 12.316C9.60842 12.3414 9.61996 12.3657 9.61419 12.3749Z" fill="#263238"/>
  <path d="M10.0534 13.2754C10.1098 13.2534 10.1695 13.2409 10.23 13.2385C10.2588 13.2385 10.2819 13.2292 10.2842 13.2131C10.2843 13.1844 10.2771 13.1563 10.2634 13.1311C10.2346 13.0584 10.2069 12.9857 10.1769 12.9083C10.0946 12.7205 10.0315 12.5248 9.98871 12.3242C10.09 12.5026 10.1724 12.691 10.2346 12.8864C10.2634 12.9637 10.29 13.0376 10.3165 13.1115C10.3345 13.1471 10.3402 13.1877 10.3327 13.2269C10.3284 13.2377 10.3217 13.2474 10.3131 13.2552C10.3045 13.263 10.2942 13.2687 10.2831 13.2719C10.2672 13.2762 10.251 13.2785 10.2346 13.2789C10.1744 13.2883 10.1131 13.2871 10.0534 13.2754Z" fill="#263238"/>
  <path d="M9.69604 13.3945C9.86675 13.4715 10.0475 13.5239 10.2328 13.5504C10.1957 13.6078 10.1403 13.651 10.0755 13.673C10.0108 13.695 9.94054 13.6945 9.87612 13.6716C9.63833 13.5838 9.69604 13.3945 9.69604 13.3945Z" fill="white"/>
  <path d="M10.1169 14.6186C9.74903 14.6261 9.38726 14.5236 9.078 14.3242C9.078 14.3242 9.32273 14.9014 10.1169 14.8252V14.6186Z" fill="#EB996E"/>
  <path d="M10.8089 11.289C10.8089 11.289 10.3471 11.558 9.69263 11.289C9.26551 11.1136 8.77722 11.0489 8.67794 11.1401C8.57867 11.2313 8.58675 11.6561 8.18734 11.8108C8.18734 11.8108 8.27623 12.6188 7.95647 12.6188C7.63671 12.6188 7.7406 11.3433 7.7406 11.3433L8.50133 10.8988L9.35209 10.668L10.1728 10.7222L10.8147 10.848L10.8089 11.289Z" fill="#263238"/>
  <path d="M7.99579 12.3545C7.98193 12.3545 7.44977 12.1929 7.46709 12.7366C7.4844 13.2803 8.0258 13.151 8.02695 13.1348C8.02811 13.1187 7.99579 12.3545 7.99579 12.3545Z" fill="#FFBE9D"/>
  <path d="M7.85414 12.9341C7.85414 12.9341 7.84491 12.941 7.8299 12.9491C7.81857 12.9539 7.80641 12.9563 7.79412 12.9563C7.78183 12.9563 7.76966 12.9539 7.75833 12.9491C7.72223 12.9283 7.69244 12.8981 7.67212 12.8617C7.6518 12.8253 7.6417 12.7841 7.6429 12.7425C7.64211 12.6956 7.65156 12.6491 7.6706 12.6063C7.6749 12.5891 7.68336 12.5733 7.69524 12.5602C7.70713 12.5471 7.72206 12.5372 7.73871 12.5312C7.74965 12.5282 7.76128 12.529 7.77175 12.5334C7.78221 12.5378 7.79089 12.5456 7.79643 12.5555C7.80335 12.5705 7.79643 12.582 7.80335 12.582C7.81028 12.582 7.8149 12.5728 7.81028 12.5508C7.80617 12.5376 7.79812 12.5259 7.78719 12.5174C7.77176 12.5065 7.75276 12.502 7.73409 12.5047C7.71194 12.5099 7.6915 12.5207 7.67472 12.536C7.65794 12.5514 7.64539 12.5708 7.63828 12.5924C7.61642 12.6401 7.60689 12.6925 7.61057 12.7448C7.60931 12.7933 7.62245 12.8412 7.64833 12.8822C7.67422 12.9233 7.71169 12.9558 7.75602 12.9756C7.77067 12.9791 7.78589 12.9794 7.80064 12.9764C7.81539 12.9734 7.82931 12.9672 7.84145 12.9583C7.85414 12.9526 7.85645 12.9352 7.85414 12.9341Z" fill="#EB996E"/>
  <path d="M7.62596 10.6702C7.62019 10.6552 7.71023 10.616 7.8199 10.6506C7.92956 10.6852 7.98151 10.766 7.96881 10.7764C7.95611 10.7868 7.89378 10.736 7.80143 10.7083C7.70908 10.6806 7.63058 10.6864 7.62596 10.6702Z" fill="#263238"/>
  <path d="M7.93562 10.3242C7.95409 10.3242 7.95293 10.4397 7.97833 10.5713C8.00373 10.7028 8.06491 10.8021 8.05105 10.8021C8.0372 10.8021 7.94832 10.7259 7.91946 10.5782C7.8949 10.4942 7.90062 10.4044 7.93562 10.3242Z" fill="#263238"/>
  <path d="M10.2713 12.0942C10.2528 12.0676 10.3544 11.9787 10.5114 11.973C10.6684 11.9672 10.7781 12.0445 10.7631 12.0722C10.748 12.0999 10.6476 12.0861 10.5172 12.093C10.3867 12.0999 10.2875 12.1242 10.2713 12.0942Z" fill="#263238"/>
  <path d="M9.0565 11.9939C9.03918 11.9673 9.13961 11.8785 9.29776 11.8715C9.45591 11.8646 9.56326 11.9431 9.54826 11.972C9.53325 12.0008 9.43282 11.9847 9.30238 11.9916C9.17194 11.9985 9.06689 12.0274 9.0565 11.9939Z" fill="#263238"/>
  <path d="M4.55283 45.5938L4.36236 46.3903C4.36236 46.3903 3.0614 48.0802 2.65968 47.9983C2.39649 47.944 2.71971 47.5031 3.21493 46.2183L3.31882 45.6884L4.55283 45.5938Z" fill="#455A64"/>
  <path d="M2.60422 47.7495C2.62063 47.7776 2.64464 47.8004 2.67348 47.8153C2.71417 47.8332 2.75903 47.8394 2.80305 47.8333C2.84707 47.8272 2.88854 47.809 2.92282 47.7807C3.15125 47.5897 3.36754 47.3846 3.57042 47.1666C3.81168 46.9138 4.01369 46.6702 4.15683 46.4913L4.32306 46.2777L4.36808 46.2188C4.37314 46.2117 4.37894 46.2051 4.38539 46.1992L4.37154 46.2223L4.32998 46.2823C4.2942 46.3354 4.23879 46.4105 4.16953 46.5017C3.98978 46.7395 3.79709 46.9672 3.59235 47.1839C3.38909 47.4029 3.17035 47.6069 2.93783 47.7945C2.89466 47.8254 2.84405 47.8441 2.79122 47.8488C2.75111 47.8515 2.71107 47.8427 2.67579 47.8234C2.65285 47.8121 2.63362 47.7945 2.62038 47.7726C2.61324 47.7663 2.6077 47.7584 2.60422 47.7495Z" fill="#263238"/>
  <path d="M2.78922 47.2063C2.82324 47.1926 2.86029 47.1883 2.89657 47.1936C2.98373 47.2024 3.06758 47.2317 3.1413 47.2791C3.21812 47.3228 3.28035 47.3883 3.32022 47.4672C3.3375 47.4992 3.347 47.5348 3.34793 47.5711C3.34793 47.5711 3.33523 47.5319 3.30521 47.4741C3.26275 47.4012 3.20184 47.3407 3.1286 47.2987C3.05837 47.2539 2.97986 47.2237 2.89773 47.2098C2.86165 47.2067 2.82542 47.2055 2.78922 47.2063Z" fill="#263238"/>
  <path d="M4.02064 46.8089C4.01393 46.797 4.00888 46.7842 4.00563 46.7708C3.99341 46.7342 3.98377 46.6968 3.97677 46.6589C3.95828 46.5346 3.9797 46.4077 4.03795 46.2964C4.0948 46.1841 4.1874 46.094 4.30114 46.0401C4.33546 46.025 4.37152 46.0141 4.4085 46.0078C4.43505 46.0078 4.45006 46.0078 4.45006 46.0078C4.40144 46.0209 4.35396 46.0379 4.30807 46.0586C4.20157 46.1155 4.11557 46.2043 4.06219 46.3126C4.00676 46.419 3.98388 46.5395 3.99639 46.6589C4.00678 46.7524 4.02525 46.8078 4.02064 46.8089Z" fill="#263238"/>
  <path d="M4.47078 45.7344C4.47078 45.7344 4.4477 45.8498 4.4223 45.9883C4.41295 46.0748 4.39037 46.1593 4.35535 46.2388C4.35535 46.2388 4.37497 46.1234 4.39921 45.9849C4.4096 45.8981 4.43376 45.8135 4.47078 45.7344Z" fill="#263238"/>
  <path d="M3.19016 46.3321C3.24485 46.3164 3.30285 46.3164 3.35754 46.3321C3.41346 46.3408 3.46561 46.3657 3.5076 46.4036C3.5076 46.4106 3.4395 46.3759 3.35177 46.3552C3.26403 46.3344 3.19131 46.339 3.19016 46.3321Z" fill="#263238"/>
  <path d="M3.1684 46.4687C3.21317 46.4501 3.26309 46.4481 3.30923 46.4629C3.35711 46.4705 3.40084 46.4946 3.43274 46.531C3.43274 46.5368 3.37618 46.5033 3.30346 46.486C3.23073 46.4687 3.1684 46.4756 3.1684 46.4687Z" fill="#263238"/>
  <path d="M3.05792 46.6379C3.10265 46.6142 3.1544 46.6073 3.20377 46.6185C3.25313 46.6298 3.29683 46.6584 3.32689 46.6991C3.28629 46.6758 3.24334 46.6568 3.19875 46.6425C3.15214 46.6356 3.10489 46.634 3.05792 46.6379Z" fill="#263238"/>
  <path d="M3.28476 46.2732C3.28476 46.2732 3.34479 46.257 3.43713 46.2212C3.49135 46.1999 3.54384 46.1745 3.59413 46.145C3.62401 46.1282 3.65292 46.1097 3.6807 46.0896C3.70726 46.07 3.73611 46.0423 3.73496 46.0111C3.73381 45.98 3.69571 45.9638 3.6657 45.9719C3.63492 45.9822 3.60743 46.0006 3.58605 46.025C3.53756 46.07 3.49716 46.1127 3.46369 46.1497C3.39673 46.2247 3.35979 46.2743 3.35748 46.272C3.36248 46.2581 3.36991 46.2452 3.37942 46.2339C3.4016 46.2011 3.42549 46.1696 3.45099 46.1393C3.48682 46.0935 3.52537 46.05 3.56642 46.0088C3.58991 45.9804 3.62122 45.9596 3.65646 45.9488C3.66694 45.9455 3.67801 45.9445 3.6889 45.9459C3.6998 45.9473 3.71026 45.951 3.71958 45.9569C3.7289 45.9627 3.73685 45.9704 3.7429 45.9796C3.74894 45.9888 3.75292 45.9991 3.75458 46.01C3.75241 46.0305 3.74542 46.0501 3.73418 46.0674C3.72295 46.0846 3.70779 46.099 3.68994 46.1093C3.65993 46.13 3.62991 46.1485 3.60105 46.1647C3.54882 46.1932 3.4944 46.2175 3.43829 46.2374C3.4005 46.2502 3.36195 46.2606 3.32285 46.2686C3.31038 46.2716 3.29759 46.2731 3.28476 46.2732Z" fill="#263238"/>
  <path d="M3.34858 46.2594C3.34858 46.2594 3.33935 46.2029 3.32434 46.114C3.31721 46.0637 3.30403 46.0145 3.28509 45.9674C3.27227 45.9397 3.25597 45.9137 3.23661 45.89C3.21698 45.8681 3.18582 45.8485 3.16273 45.8635C3.13964 45.8785 3.13503 45.9131 3.13849 45.942C3.14326 45.9722 3.15179 46.0016 3.16388 46.0297C3.18528 46.0772 3.21369 46.1211 3.24815 46.1602C3.30933 46.2271 3.35551 46.2594 3.3532 46.2629C3.34052 46.2581 3.3288 46.251 3.31857 46.2421C3.28846 46.2216 3.2606 46.198 3.23545 46.1717C3.19748 46.1325 3.16628 46.0872 3.14311 46.0378C3.12942 46.0085 3.12008 45.9774 3.1154 45.9454C3.11065 45.9266 3.11138 45.9068 3.11752 45.8884C3.12366 45.87 3.13494 45.8538 3.15003 45.8416C3.16858 45.8346 3.18895 45.8341 3.20782 45.8402C3.22668 45.8462 3.24294 45.8585 3.25392 45.875C3.27504 45.8999 3.29218 45.928 3.30472 45.9581C3.3259 46.0083 3.33989 46.0611 3.34627 46.1151C3.35204 46.1602 3.3532 46.1971 3.35435 46.2225C3.35414 46.235 3.35219 46.2474 3.34858 46.2594Z" fill="#263238"/>
  <path d="M11.0192 45.9953V44.9332L9.03141 44.9102L9.00601 46.4628L9.12953 46.472C9.67785 46.5089 11.9196 46.6221 12.2879 46.5147C12.7069 46.3958 11.0192 45.9953 11.0192 45.9953Z" fill="#455A64"/>
  <path d="M8.98593 46.418H9.02056L9.11868 46.426L9.48 46.4457C9.78475 46.4607 10.2061 46.4757 10.6725 46.4815C11.1388 46.4872 11.5602 46.4815 11.8661 46.4815L12.2274 46.4711H12.3255H12.3601H12.2274H11.8661C11.5602 46.4711 11.1388 46.4711 10.6725 46.4711C10.2061 46.4711 9.7859 46.4514 9.48 46.4411L9.11868 46.4284H9.02056L8.98593 46.418Z" fill="#263238"/>
  <path d="M11.6635 46.5074C11.6797 46.4476 11.703 46.3899 11.7327 46.3354C11.7687 46.2849 11.811 46.2391 11.8586 46.1992C11.796 46.2201 11.7439 46.2644 11.7131 46.3227C11.6742 46.376 11.6565 46.4418 11.6635 46.5074Z" fill="#263238"/>
  <path d="M11.0812 46.1954C11.087 46.1954 11.1158 46.1654 11.1447 46.1204C11.1735 46.0754 11.1943 46.035 11.1886 46.0315C11.1828 46.028 11.1539 46.0615 11.1251 46.1077C11.0962 46.1539 11.0754 46.1954 11.0812 46.1954Z" fill="#263238"/>
  <path d="M10.9226 46.1142C10.9226 46.1142 10.9584 46.0981 10.993 46.0681C11.0276 46.0381 11.0519 46.0092 11.0473 46.0046C11.0426 46 11.0115 46.0196 10.9768 46.0496C10.9422 46.0796 10.918 46.1096 10.9226 46.1142Z" fill="#263238"/>
  <path d="M10.8241 45.9255C10.8241 45.9325 10.8703 45.9394 10.9268 45.9405C10.9617 45.9446 10.9971 45.9415 11.0307 45.9313C11.0307 45.9244 10.9846 45.9175 10.928 45.9163C10.8931 45.9114 10.8576 45.9146 10.8241 45.9255Z" fill="#263238"/>
  <path d="M10.7881 45.793C10.8219 45.8166 10.8623 45.8291 10.9035 45.8288C10.9426 45.8357 10.9829 45.8305 11.019 45.8137C10.9808 45.8072 10.9422 45.8041 10.9035 45.8045C10.8655 45.7968 10.8269 45.793 10.7881 45.793Z" fill="#263238"/>
  <path d="M11.148 46.028C11.1905 46.035 11.2338 46.035 11.2762 46.028C11.3223 46.0223 11.3679 46.0127 11.4124 45.9992C11.4398 45.9921 11.4661 45.9816 11.4909 45.968C11.5062 45.9594 11.5177 45.9454 11.5232 45.9287C11.5254 45.9194 11.5248 45.9096 11.5215 45.9006C11.5182 45.8916 11.5124 45.8837 11.5047 45.878C11.4564 45.8526 11.4007 45.8452 11.3475 45.8571C11.2942 45.8689 11.2469 45.8992 11.2138 45.9426C11.1941 45.9676 11.1796 45.9962 11.1711 46.0269C11.1654 46.0488 11.1654 46.0615 11.1711 46.0615C11.1849 46.0224 11.2047 45.9858 11.23 45.953C11.2611 45.9194 11.3012 45.8954 11.3454 45.8837C11.3702 45.8758 11.3964 45.8728 11.4223 45.875C11.4483 45.8771 11.4735 45.8844 11.4967 45.8964C11.5174 45.9114 11.5094 45.9357 11.4863 45.9484C11.4632 45.9609 11.4388 45.971 11.4135 45.9784C11.3707 45.9928 11.3266 46.0036 11.2819 46.0107C11.1977 46.0246 11.148 46.0246 11.148 46.028Z" fill="#263238"/>
  <path d="M11.1845 46.0345C11.2006 46.0078 11.2064 45.9762 11.2007 45.9456C11.1967 45.9123 11.1852 45.8804 11.1672 45.8521C11.1566 45.8329 11.1412 45.8167 11.1227 45.805C11.1041 45.7933 11.0829 45.7865 11.061 45.7852C11.048 45.7879 11.0366 45.7956 11.0291 45.8066C11.0216 45.8175 11.0185 45.8309 11.0206 45.844C11.0238 45.8646 11.0313 45.8842 11.0425 45.9017C11.0589 45.9298 11.0787 45.9558 11.1014 45.9791C11.1207 46.0027 11.1457 46.021 11.1741 46.0322C11.1741 46.0322 11.1487 46.0091 11.1141 45.9675C11.0937 45.9437 11.0759 45.9178 11.061 45.8902C11.0448 45.8636 11.0333 45.8152 11.061 45.8094C11.0887 45.8036 11.1256 45.8383 11.1453 45.8648C11.1627 45.8897 11.1745 45.918 11.1799 45.9479C11.1839 45.9766 11.1854 46.0056 11.1845 46.0345Z" fill="#263238"/>
  <path d="M9.03281 45.8729C9.03281 45.8729 9.09052 45.8729 9.18056 45.8798C9.29709 45.8957 9.40716 45.9428 9.49917 46.016C9.58946 46.0913 9.65734 46.1899 9.69541 46.3011C9.72542 46.3877 9.72658 46.4443 9.73119 46.4443C9.73581 46.4443 9.73119 46.4293 9.73119 46.4039C9.72329 46.3251 9.69995 46.2487 9.66252 46.179C9.62509 46.1093 9.57429 46.0476 9.51302 45.9975C9.41823 45.9202 9.30241 45.8732 9.18056 45.8625C9.1422 45.8583 9.1035 45.8583 9.06513 45.8625C9.05399 45.8647 9.04314 45.8682 9.03281 45.8729Z" fill="#263238"/>
  <path d="M9.24959 45.0508C9.22727 45.3222 9.22033 45.5947 9.22881 45.8669C9.25267 45.5956 9.25961 45.323 9.24959 45.0508Z" fill="#263238"/>
  <path d="M9.98871 46.2671C10.0835 46.2901 10.1809 46.3009 10.2785 46.2994C10.3759 46.305 10.4736 46.2984 10.5694 46.2798C10.5694 46.2729 10.4389 46.2798 10.2785 46.2798C10.118 46.2798 9.98871 46.2602 9.98871 46.2671Z" fill="#263238"/>
  <path d="M9.59613 46.2625C9.59613 46.2625 9.60652 46.2902 9.61922 46.3202C9.63192 46.3502 9.63884 46.3767 9.64577 46.3756C9.65269 46.3744 9.65616 46.3444 9.64577 46.3098C9.63538 46.2752 9.60075 46.2578 9.59613 46.2625Z" fill="#263238"/>
  <path d="M9.453 46.0806C9.453 46.0806 9.46108 46.106 9.48071 46.1267C9.50033 46.1475 9.52111 46.1614 9.52688 46.1568C9.53265 46.1521 9.5188 46.1314 9.49802 46.1106C9.47724 46.0898 9.45762 46.0713 9.453 46.0806Z" fill="#263238"/>
  <path d="M9.24469 45.9908C9.24469 45.9977 9.27239 45.9977 9.30125 46.0081C9.33011 46.0185 9.35089 46.0347 9.35666 46.0301C9.36243 46.0254 9.34512 45.9989 9.30933 45.9862C9.27355 45.9735 9.24238 45.985 9.24469 45.9908Z" fill="#263238"/>
  <path d="M9.09558 45.9501C9.09558 45.957 9.10366 45.9674 9.11982 45.9732C9.13598 45.9789 9.15215 45.9801 9.15445 45.9732C9.15676 45.9662 9.14637 45.957 9.12906 45.9501C9.11174 45.9432 9.09789 45.9443 9.09558 45.9501Z" fill="#263238"/>
  <path d="M12.374 24.918L11.4459 45.5406L8.34995 45.6052L8.86479 28.3406L5.38209 45.7368H2.43848L6.36907 24.918" fill="#263238"/>
  <path d="M3.17881 45.4377C3.19497 45.4377 3.2019 45.4804 3.19382 45.5278C3.18574 45.5751 3.16611 45.6109 3.14995 45.6086C3.13379 45.6063 3.12687 45.5647 3.13495 45.5174C3.14303 45.4701 3.16842 45.4343 3.17881 45.4377Z" fill="#455A64"/>
  <path d="M3.29141 44.7618C3.30757 44.7618 3.30872 44.8426 3.29141 44.9349C3.27409 45.0273 3.24985 45.1023 3.23369 45.0988C3.21753 45.0954 3.21637 45.0192 3.23369 44.9257C3.251 44.8322 3.27524 44.7595 3.29141 44.7618Z" fill="#455A64"/>
  <path d="M3.40524 44.086C3.4214 44.086 3.42255 44.1668 3.40524 44.2603C3.38792 44.3538 3.36368 44.4265 3.34752 44.4231C3.33136 44.4196 3.3302 44.3434 3.34752 44.2499C3.36483 44.1564 3.38908 44.0837 3.40524 44.086Z" fill="#455A64"/>
  <path d="M3.51607 43.4102C3.53223 43.4102 3.53223 43.491 3.51607 43.5845C3.49991 43.678 3.47451 43.7507 3.4572 43.7473C3.43988 43.7438 3.44104 43.6676 3.4572 43.5741C3.47336 43.4806 3.50337 43.4079 3.51607 43.4102Z" fill="#455A64"/>
  <path d="M3.6321 42.7344C3.64826 42.7344 3.64942 42.8152 3.6321 42.9075C3.61479 42.9999 3.59055 43.0749 3.57439 43.0714C3.55822 43.068 3.55707 42.9918 3.57439 42.8983C3.5917 42.8048 3.61825 42.7344 3.6321 42.7344Z" fill="#455A64"/>
  <path d="M3.74676 42.0626C3.76292 42.0626 3.76407 42.1434 3.74676 42.2358C3.72944 42.3281 3.7052 42.4032 3.68904 42.3997C3.67288 42.3962 3.67173 42.32 3.68904 42.2265C3.70636 42.133 3.73175 42.0592 3.74676 42.0626Z" fill="#455A64"/>
  <path d="M3.86428 41.3868C3.88044 41.3868 3.88159 41.4676 3.86428 41.56C3.84696 41.6523 3.82272 41.7274 3.8054 41.7239C3.78809 41.7204 3.78924 41.6443 3.8054 41.5508C3.82157 41.4573 3.84812 41.3834 3.86428 41.3868Z" fill="#455A64"/>
  <path d="M3.97695 40.7111C3.99311 40.7111 3.99427 40.7919 3.97695 40.8854C3.95964 40.9789 3.9354 41.0516 3.91923 41.0493C3.90307 41.047 3.90192 40.9685 3.91923 40.875C3.93655 40.7815 3.95964 40.7076 3.97695 40.7111Z" fill="#455A64"/>
  <path d="M4.0915 40.0352C4.10766 40.0352 4.10766 40.116 4.0915 40.2095C4.07534 40.303 4.04879 40.3757 4.03263 40.3723C4.01647 40.3688 4.01647 40.2926 4.03263 40.1991C4.04879 40.1056 4.07419 40.0329 4.0915 40.0352Z" fill="#455A64"/>
  <path d="M4.20662 39.3594C4.22278 39.3594 4.22278 39.4402 4.20662 39.5337C4.19046 39.6272 4.16391 39.7 4.14775 39.6977C4.13159 39.6953 4.13043 39.6169 4.14775 39.5233C4.16507 39.4298 4.18931 39.3571 4.20662 39.3594Z" fill="#455A64"/>
  <path d="M4.32255 38.6836C4.33987 38.6836 4.33987 38.7645 4.32255 38.858C4.30523 38.9515 4.27984 39.0242 4.26368 39.0219C4.24752 39.0196 4.24752 38.9411 4.26368 38.8476C4.27984 38.7541 4.30523 38.6813 4.32255 38.6836Z" fill="#455A64"/>
  <path d="M4.43941 38.0118C4.45672 38.0118 4.45672 38.0926 4.43941 38.185C4.42209 38.2773 4.39785 38.3478 4.38169 38.3478C4.36553 38.3478 4.36553 38.267 4.38169 38.1734C4.39785 38.0799 4.42325 38.0084 4.43941 38.0118Z" fill="#455A64"/>
  <path d="M4.55274 37.336C4.5689 37.336 4.5689 37.4168 4.55274 37.5103C4.53658 37.6038 4.51003 37.6765 4.49387 37.6731C4.47771 37.6696 4.47771 37.5923 4.49387 37.4999C4.51003 37.4076 4.53889 37.3337 4.55274 37.336Z" fill="#455A64"/>
  <path d="M4.67076 36.6603C4.68692 36.6603 4.68692 36.7399 4.67076 36.8334C4.65459 36.9269 4.62804 36.9997 4.61188 36.9973C4.59572 36.995 4.59572 36.9165 4.61188 36.823C4.62804 36.7295 4.65921 36.6568 4.67076 36.6603Z" fill="#455A64"/>
  <path d="M4.79328 35.9844C4.80944 35.9844 4.80944 36.0652 4.79328 36.1587C4.77712 36.2522 4.74941 36.325 4.73325 36.3215C4.71709 36.318 4.71709 36.2407 4.73325 36.1483C4.74941 36.056 4.77712 35.9821 4.79328 35.9844Z" fill="#455A64"/>
  <path d="M4.9109 35.3126C4.92706 35.3126 4.92706 35.3934 4.9109 35.4869C4.89474 35.5804 4.86819 35.6532 4.85088 35.6497C4.83356 35.6462 4.83471 35.5689 4.85088 35.4754C4.86704 35.3819 4.89936 35.3092 4.9109 35.3126Z" fill="#455A64"/>
  <path d="M5.03183 34.6368C5.04799 34.6368 5.04799 34.7176 5.03183 34.81C5.01567 34.9023 4.98797 34.9762 4.97181 34.9739C4.95565 34.9716 4.95565 34.8931 4.97181 34.7996C4.98797 34.7061 5.01567 34.6334 5.03183 34.6368Z" fill="#455A64"/>
  <path d="M5.15488 33.9609C5.17104 33.9609 5.17104 34.0417 5.15488 34.1341C5.13872 34.2264 5.11101 34.3003 5.09485 34.298C5.07869 34.2957 5.07869 34.2172 5.09485 34.1237C5.11101 34.0302 5.13872 33.9609 5.15488 33.9609Z" fill="#455A64"/>
  <path d="M5.27625 33.2892C5.29241 33.2892 5.29241 33.37 5.27625 33.4623C5.26009 33.5547 5.23238 33.6286 5.21622 33.6263C5.20006 33.6239 5.20006 33.5454 5.21622 33.4519C5.23238 33.3584 5.26009 33.2857 5.27625 33.2892Z" fill="#455A64"/>
  <path d="M5.39679 32.6172C5.41411 32.6172 5.41295 32.698 5.39679 32.7915C5.38063 32.8851 5.35293 32.9578 5.33677 32.9543C5.32061 32.9508 5.32061 32.8735 5.33677 32.78C5.35293 32.6865 5.38063 32.6149 5.39679 32.6172Z" fill="#455A64"/>
  <path d="M5.52142 31.9415C5.53758 31.9415 5.53758 32.0223 5.52142 32.1147C5.50526 32.207 5.4764 32.2809 5.46024 32.2774C5.44408 32.274 5.44523 32.1966 5.46024 32.1043C5.47525 32.0119 5.50526 31.9381 5.52142 31.9415Z" fill="#455A64"/>
  <path d="M5.64947 31.2696C5.66563 31.2696 5.66448 31.3504 5.64947 31.4439C5.63447 31.5374 5.60445 31.6101 5.58829 31.6067C5.57213 31.6032 5.57328 31.5259 5.58829 31.4324C5.6033 31.3388 5.63216 31.2673 5.64947 31.2696Z" fill="#455A64"/>
  <path d="M5.77337 30.5938C5.78953 30.5938 5.78838 30.6746 5.77337 30.7681C5.75837 30.8616 5.72835 30.9332 5.71219 30.9309C5.69603 30.9286 5.69719 30.8501 5.71219 30.7566C5.7272 30.6631 5.75721 30.5915 5.77337 30.5938Z" fill="#455A64"/>
  <path d="M5.90258 29.9219C5.91874 29.9219 5.91759 30.0027 5.90258 30.0962C5.88757 30.1897 5.85641 30.2613 5.84024 30.2589C5.82408 30.2566 5.82524 30.1781 5.84024 30.0846C5.85525 29.9911 5.88642 29.9219 5.90258 29.9219Z" fill="#455A64"/>
  <path d="M6.03201 29.2501C6.04817 29.2501 6.04702 29.3309 6.03201 29.4233C6.017 29.5156 5.98699 29.5895 5.97083 29.586C5.95467 29.5826 5.95582 29.5052 5.97083 29.4117C5.98584 29.3182 6.01585 29.2467 6.03201 29.2501Z" fill="#455A64"/>
  <path d="M6.15957 28.5782C6.17573 28.5782 6.17457 28.659 6.15957 28.7526C6.14456 28.8461 6.11339 28.9176 6.09723 28.9142C6.08107 28.9107 6.08223 28.8334 6.09723 28.741C6.11224 28.6487 6.14341 28.5748 6.15957 28.5782Z" fill="#455A64"/>
  <path d="M6.29348 27.9064C6.30964 27.9064 6.30849 27.9872 6.29348 28.0795C6.27847 28.1719 6.2473 28.2458 6.23114 28.2423C6.21498 28.2388 6.21614 28.1615 6.23114 28.068C6.24615 27.9745 6.27732 27.9029 6.29348 27.9064Z" fill="#455A64"/>
  <path d="M6.42772 27.2345C6.44388 27.2345 6.44273 27.3153 6.42772 27.4088C6.41271 27.5023 6.38039 27.5739 6.36423 27.5704C6.34807 27.567 6.34922 27.4896 6.36423 27.3961C6.37924 27.3026 6.41156 27.231 6.42772 27.2345Z" fill="#455A64"/>
  <path d="M6.56417 26.5626C6.58148 26.5626 6.57917 26.6446 6.56417 26.7369C6.54916 26.8293 6.51684 26.902 6.50068 26.8985C6.48451 26.8951 6.48567 26.8177 6.50068 26.7254C6.51568 26.633 6.548 26.5592 6.56417 26.5626Z" fill="#455A64"/>
  <path d="M6.69895 25.8907C6.71511 25.8907 6.71395 25.9716 6.69895 26.0639C6.68394 26.1562 6.647 26.2255 6.63084 26.2255C6.61468 26.2255 6.61699 26.1435 6.63084 26.0512C6.64469 25.9589 6.68279 25.8873 6.69895 25.8907Z" fill="#455A64"/>
  <path d="M6.80607 25.387C6.82223 25.387 6.828 25.4308 6.81761 25.477C6.80722 25.5232 6.7876 25.5589 6.77144 25.5555C6.75528 25.552 6.74951 25.5116 6.75874 25.4654C6.76798 25.4193 6.78991 25.3835 6.80607 25.387Z" fill="#455A64"/>
  <path d="M8.88273 45.4375C8.89889 45.4375 8.91044 45.4779 8.90813 45.5253C8.90582 45.5726 8.88966 45.6107 8.8735 45.6107C8.85734 45.6107 8.84579 45.5703 8.8481 45.5218C8.85041 45.4733 8.86542 45.4364 8.88273 45.4375Z" fill="#455A64"/>
  <path d="M8.91141 44.75C8.92873 44.75 8.93912 44.8274 8.93566 44.9232C8.93219 45.019 8.91488 45.094 8.89872 45.0929C8.88256 45.0917 8.87101 45.0155 8.87563 44.9209C8.88025 44.8262 8.89525 44.7489 8.91141 44.75Z" fill="#455A64"/>
  <path d="M8.93327 44.0625C8.94943 44.0625 8.96097 44.141 8.95751 44.2357C8.95404 44.3303 8.93904 44.4065 8.92288 44.4065C8.90672 44.4065 8.89517 44.3292 8.89748 44.2333C8.89979 44.1375 8.91595 44.0625 8.93327 44.0625Z" fill="#455A64"/>
  <path d="M8.95057 43.375C8.96673 43.375 8.97827 43.4523 8.97597 43.547C8.97366 43.6417 8.95865 43.719 8.94133 43.719C8.92402 43.719 8.91363 43.6405 8.91594 43.5458C8.91825 43.4512 8.93325 43.375 8.95057 43.375Z" fill="#455A64"/>
  <path d="M8.96725 42.6875C8.98341 42.6875 8.99495 42.766 8.99264 42.8607C8.99033 42.9553 8.97533 43.0327 8.95917 43.0315C8.943 43.0303 8.93031 42.9542 8.93261 42.8595C8.93492 42.7648 8.94993 42.6875 8.96725 42.6875Z" fill="#455A64"/>
  <path d="M8.98487 41.9961C9.00219 41.9961 9.01373 42.0746 9.01027 42.1692C9.0068 42.2639 8.99295 42.3412 8.97564 42.3401C8.95832 42.3389 8.94793 42.2627 8.95024 42.1681C8.95255 42.0734 8.96871 41.9961 8.98487 41.9961Z" fill="#455A64"/>
  <path d="M9.00819 41.3125C9.02435 41.3125 9.03589 41.3899 9.03243 41.4857C9.02896 41.5815 9.0128 41.6565 8.99549 41.6554C8.97817 41.6542 8.96894 41.578 8.9724 41.4834C8.97586 41.3887 8.99202 41.3114 9.00819 41.3125Z" fill="#455A64"/>
  <path d="M9.03729 40.625C9.05346 40.625 9.06384 40.7024 9.06038 40.797C9.05692 40.8917 9.0396 40.969 9.02344 40.9679C9.00728 40.9667 8.99574 40.8894 9.00035 40.7947C9.00497 40.7 9.02113 40.6239 9.03729 40.625Z" fill="#455A64"/>
  <path d="M9.0629 39.9375C9.08022 39.9375 9.09061 40.016 9.08715 40.1107C9.08368 40.2053 9.06637 40.2815 9.05021 40.2815C9.03404 40.2815 9.0225 40.203 9.02712 40.1083C9.03174 40.0137 9.04674 39.9375 9.0629 39.9375Z" fill="#455A64"/>
  <path d="M9.08846 39.25C9.10463 39.25 9.11617 39.3274 9.1127 39.4232C9.10924 39.519 9.09308 39.594 9.07692 39.594C9.06076 39.594 9.04922 39.5155 9.05268 39.4209C9.05614 39.3262 9.0723 39.2489 9.08846 39.25Z" fill="#455A64"/>
  <path d="M9.10826 38.5625C9.12558 38.5625 9.13597 38.6398 9.13366 38.7357C9.13135 38.8315 9.11519 38.9065 9.09787 38.9065C9.08056 38.9065 9.07017 38.828 9.07363 38.7333C9.07709 38.6387 9.0921 38.5625 9.10826 38.5625Z" fill="#455A64"/>
  <path d="M9.12717 37.875C9.14334 37.875 9.15488 37.9524 9.15257 38.047C9.15026 38.1417 9.13525 38.219 9.11794 38.2179C9.10062 38.2167 9.09023 38.1405 9.09254 38.0459C9.09485 37.9512 9.10986 37.8739 9.12717 37.875Z" fill="#455A64"/>
  <path d="M9.14105 37.1914C9.15721 37.1914 9.16875 37.2687 9.1676 37.3634C9.16644 37.4581 9.15028 37.5354 9.13412 37.5354C9.11796 37.5354 9.10526 37.4581 9.10757 37.3623C9.10988 37.2664 9.12373 37.1914 9.14105 37.1914Z" fill="#455A64"/>
  <path d="M9.15339 36.5C9.16955 36.5 9.18225 36.5785 9.17994 36.6732C9.17763 36.7678 9.16378 36.844 9.14762 36.844C9.13146 36.844 9.11876 36.7667 9.11992 36.672C9.12107 36.5773 9.13608 36.5 9.15339 36.5Z" fill="#455A64"/>
  <path d="M9.15976 35.8086C9.17592 35.8086 9.18862 35.8859 9.18746 35.9806C9.18631 36.0752 9.17015 36.1549 9.1563 36.1549C9.14245 36.1549 9.12628 36.0776 9.12744 35.9817C9.12859 35.8859 9.14245 35.8086 9.15976 35.8086Z" fill="#455A64"/>
  <path d="M9.17195 35.125C9.18811 35.125 9.20196 35.2023 9.2008 35.297C9.19965 35.3917 9.18695 35.469 9.16964 35.469C9.15232 35.469 9.14078 35.3917 9.14078 35.297C9.14078 35.2023 9.15001 35.125 9.17195 35.125Z" fill="#455A64"/>
  <path d="M9.17161 34.4375C9.18893 34.4375 9.20163 34.5137 9.20163 34.6083C9.20163 34.703 9.18778 34.7803 9.17161 34.7803C9.15545 34.7803 9.1416 34.7042 9.1416 34.6083C9.1416 34.5125 9.15084 34.4375 9.17161 34.4375Z" fill="#455A64"/>
  <path d="M9.17172 33.75C9.18788 33.75 9.20173 33.8262 9.20173 33.922C9.20173 34.0178 9.18904 34.094 9.17287 34.094C9.15671 34.094 9.14286 34.0167 9.14171 33.922C9.14055 33.8273 9.14863 33.75 9.17172 33.75Z" fill="#455A64"/>
  <path d="M9.15881 33.0625C9.17497 33.0625 9.18998 33.1398 9.18998 33.2345C9.18998 33.3292 9.17843 33.4065 9.16227 33.4065C9.14611 33.4065 9.1311 33.3303 9.12995 33.2345C9.1288 33.1387 9.14265 33.0625 9.15881 33.0625Z" fill="#455A64"/>
  <path d="M9.14948 32.375C9.16679 32.375 9.18065 32.4512 9.1818 32.5458C9.18296 32.6405 9.17141 32.7178 9.15525 32.7178C9.13909 32.7178 9.12408 32.6417 9.12177 32.547C9.11946 32.4523 9.13332 32.375 9.14948 32.375Z" fill="#455A64"/>
  <path d="M9.14062 31.6875C9.15678 31.6875 9.17179 31.7637 9.1741 31.8595C9.1764 31.9553 9.16371 32.0315 9.14639 32.0315C9.12908 32.0315 9.11522 31.9553 9.11407 31.8607C9.11292 31.766 9.1233 31.6887 9.14062 31.6875Z" fill="#455A64"/>
  <path d="M9.12377 31C9.14109 31 9.1561 31.0762 9.1584 31.172C9.16071 31.2678 9.14917 31.344 9.13301 31.344C9.11685 31.344 9.10069 31.2678 9.09838 31.1732C9.09607 31.0785 9.10761 31.0012 9.12377 31Z" fill="#455A64"/>
  <path d="M9.0984 30.3086C9.11571 30.3086 9.13188 30.3848 9.13534 30.4794C9.1388 30.5741 9.12841 30.6526 9.11225 30.6526C9.09609 30.6526 9.07878 30.5776 9.07531 30.4817C9.07185 30.3859 9.08224 30.3097 9.0984 30.3086Z" fill="#455A64"/>
  <path d="M9.0552 29.625C9.07137 29.625 9.08984 29.7 9.09561 29.7947C9.10138 29.8893 9.09561 29.9678 9.07714 29.969C9.05867 29.9702 9.04251 29.894 9.03558 29.7993C9.02865 29.7047 9.04135 29.6273 9.0552 29.625Z" fill="#455A64"/>
  <path d="M8.99601 28.9375C9.01217 28.9375 9.03411 29.0114 9.04334 29.106C9.05258 29.2007 9.04334 29.278 9.03064 29.2803C9.01794 29.2827 8.9937 29.2065 8.98331 29.1118C8.97292 29.0172 8.97985 28.9398 8.99601 28.9375Z" fill="#455A64"/>
  <path d="M8.93039 28.4258C8.9477 28.4258 8.96617 28.4604 8.9731 28.5077C8.98003 28.5551 8.9731 28.5955 8.95578 28.5978C8.93847 28.6001 8.92 28.5631 8.91307 28.5158C8.90615 28.4685 8.91423 28.4292 8.93039 28.4258Z" fill="#455A64"/>
  <path d="M9.37972 25.1797C9.38537 25.2222 9.38537 25.2653 9.37972 25.3078C9.37972 25.3886 9.37395 25.5075 9.36703 25.6541C9.35433 25.9462 9.33355 26.3467 9.30584 26.7946C9.29084 27.0163 9.27699 27.2287 9.26429 27.4226C9.26387 27.5965 9.2386 27.7695 9.18925 27.9363C9.16902 27.993 9.13723 28.0448 9.09589 28.0885C9.05456 28.1322 9.00459 28.1669 8.94915 28.1903C8.91914 28.2027 8.88696 28.2089 8.85449 28.2087C8.83256 28.2087 8.82101 28.2087 8.82101 28.203C8.8606 28.196 8.89931 28.1848 8.93645 28.1695C9.03619 28.1176 9.11132 28.0284 9.14539 27.9213C9.18778 27.7573 9.20797 27.5885 9.20541 27.4191C9.21696 27.2241 9.22966 27.0128 9.24235 26.7912C9.27006 26.3456 9.29776 25.9427 9.32201 25.6507C9.33355 25.5052 9.34394 25.3875 9.35202 25.3044C9.35695 25.262 9.36624 25.2202 9.37972 25.1797Z" fill="#455A64"/>
  <path d="M9.06241 25.45C9.06241 25.443 9.11435 25.45 9.13282 25.5204C9.13807 25.5403 9.1385 25.5611 9.13409 25.5812C9.12967 25.6013 9.12053 25.62 9.10742 25.6358C9.08953 25.6549 9.06612 25.668 9.04047 25.6731C9.01481 25.6783 8.98818 25.6754 8.96428 25.6647C8.94176 25.6574 8.92187 25.6436 8.90707 25.6252C8.89227 25.6067 8.8832 25.5843 8.88099 25.5607C8.87878 25.5371 8.88352 25.5134 8.89463 25.4925C8.90574 25.4716 8.92273 25.4544 8.94351 25.443C9.00469 25.4073 9.0474 25.4373 9.04278 25.443C9.03816 25.4488 9.00353 25.443 8.96775 25.4788C8.95822 25.4872 8.95054 25.4975 8.94518 25.5091C8.93982 25.5206 8.93689 25.5331 8.93658 25.5458C8.9376 25.5602 8.94285 25.5741 8.95168 25.5856C8.9605 25.5971 8.97251 25.6057 8.98622 25.6104C8.99939 25.6164 9.01399 25.6184 9.0283 25.6164C9.0426 25.6143 9.05603 25.6083 9.06702 25.5989C9.07556 25.5894 9.0821 25.5782 9.08627 25.5661C9.09043 25.554 9.09213 25.5412 9.09126 25.5285C9.0878 25.4788 9.05663 25.4581 9.06241 25.45Z" fill="#455A64"/>
  <path d="M6.14914 25.9417C6.14914 25.9325 6.24957 25.9752 6.41349 25.9983C6.62692 26.0297 6.84489 25.9996 7.0418 25.9115C7.23872 25.8233 7.40639 25.6809 7.52514 25.5007C7.61749 25.3634 7.64865 25.2629 7.65904 25.2699C7.64682 25.3621 7.61322 25.4503 7.56092 25.5273C7.4458 25.7224 7.27285 25.8769 7.06602 25.9694C6.85919 26.0618 6.62873 26.0876 6.40656 26.0433C6.31406 26.0298 6.22594 25.995 6.14914 25.9417Z" fill="#455A64"/>
  <path d="M11.2982 25.1797C11.3074 25.1797 11.3097 25.2651 11.3501 25.3921C11.3999 25.5582 11.4955 25.707 11.626 25.8213C11.7565 25.9357 11.9165 26.0109 12.0877 26.0385C12.2193 26.0616 12.3036 26.0524 12.3048 26.0628C12.2333 26.0879 12.1566 26.0942 12.082 26.0812C11.8983 26.0635 11.7249 25.9886 11.5861 25.867C11.4473 25.7454 11.3502 25.5833 11.3085 25.4036C11.285 25.3313 11.2814 25.2539 11.2982 25.1797Z" fill="#455A64"/>
  <path d="M13.0348 25.6482L6.21027 25.176L6.44691 21.9161V20.0945L5.78431 21.1185L3.72839 19.3292L5.9413 16.4433C6.31593 16.0519 6.77685 15.7534 7.28728 15.5718C7.55859 15.4749 7.84321 15.4204 8.13112 15.4102C8.79451 15.6197 9.50634 15.6197 10.1697 15.4102C10.7968 15.467 11.4172 15.583 12.0225 15.7565L14.6059 16.4491L13.7552 19.6224L12.1945 19.0972C12.1945 19.0972 13.051 24.9902 13.0348 25.6482Z" fill="#28A745"/>
  <path d="M6.38519 20.1996C6.51088 19.9293 6.67199 19.677 6.86425 19.4492C6.81023 19.5883 6.73845 19.7199 6.6507 19.8405C6.57841 19.9714 6.48913 20.0921 6.38519 20.1996Z" fill="#263238"/>
  <g opacity="0.6">
    <path d="M14.5131 16.4831C14.5131 16.4993 12.5992 16.5132 10.242 16.5132C7.88478 16.5132 5.97086 16.4993 5.97086 16.4831C5.97086 16.467 7.88363 16.4531 10.242 16.4531C12.6003 16.4531 14.5131 16.467 14.5131 16.4831Z" fill="white"/>
  </g>
  <g opacity="0.6">
    <path d="M14.0994 17.9558C14.0994 17.9731 12.0354 17.9858 9.48892 17.9858C6.94241 17.9858 4.87726 17.9731 4.87726 17.9558C4.87726 17.9385 6.94125 17.9258 9.4947 17.9258C12.0481 17.9258 14.0994 17.9396 14.0994 17.9558Z" fill="white"/>
  </g>
  <g opacity="0.6">
    <path d="M12.306 19.5769C12.306 19.5931 10.459 19.6069 8.18027 19.6069C5.90157 19.6069 4.05344 19.5931 4.05344 19.5769C4.05344 19.5607 5.90041 19.5469 8.18027 19.5469C10.4601 19.5469 12.306 19.5607 12.306 19.5769Z" fill="white"/>
  </g>
  <g opacity="0.6">
    <path d="M12.5201 21.3425C12.5201 21.3587 11.1614 21.3725 9.48531 21.3725C7.80918 21.3725 6.4505 21.3587 6.4505 21.3425C6.4505 21.3264 7.80803 21.3125 9.48531 21.3125C11.1626 21.3125 12.5201 21.3252 12.5201 21.3425Z" fill="white"/>
  </g>
  <g opacity="0.6">
    <path d="M12.701 23.1706C12.701 23.1868 11.3066 23.2007 9.58427 23.2007C7.86197 23.2007 6.4675 23.1868 6.4675 23.1706C6.4675 23.1545 7.86197 23.1406 9.58427 23.1406C11.3066 23.1406 12.701 23.1545 12.701 23.1706Z" fill="white"/>
  </g>
  <g opacity="0.6">
    <path d="M12.9809 24.8503C12.9809 24.8665 11.4709 24.8803 9.60897 24.8803C7.74699 24.8803 6.23593 24.8665 6.23593 24.8503C6.23593 24.8342 7.74583 24.8203 9.60897 24.8203C11.4721 24.8203 12.9809 24.833 12.9809 24.8503Z" fill="white"/>
  </g>
</svg>