<svg xmlns="http://www.w3.org/2000/svg" width="69" height="48" viewBox="0 0 69 48" fill="none">
  <path d="M13.7705 3.65625H1.16797V25.7051H13.7705V3.65625Z" fill="#FAFAFA"/>
  <path d="M5.0938 25.9137C5.0938 25.9137 3.71178 15.9947 2.9896 14.904C2.9896 14.904 7.11865 11.8044 7.24449 3.40234H0.979492V25.9137H5.0938Z" fill="#F5F5F5"/>
  <path d="M9.84304 25.8707C9.84304 25.8707 11.2228 15.9506 11.9461 14.8611C11.9461 14.8611 7.8182 11.7603 7.69122 3.35938H13.9562V25.8707H9.84304Z" fill="#F5F5F5"/>
  <path d="M14.1014 2.81641H0V26.4343H14.6864V2.81641H14.1014ZM3.7005 15.0868V20.7033H1.16774V15.0868H3.7005ZM1.16774 14.6809V8.86826H3.7005V14.6809H1.16774ZM7.55632 14.6809V8.86826H10.7308V14.6809H7.55632ZM10.7308 15.0868V20.7033H7.55632V15.0868H10.7308ZM3.81501 14.6809V8.86826H7.15158V14.6809H3.81501ZM7.15158 15.0868V20.7033H3.81387V15.0868H7.15158ZM3.81387 8.76396V3.66217H7.15044V8.76396H3.81387ZM7.15044 20.8042V25.7076H3.81387V20.8042H7.15044ZM7.55632 20.8042H10.7308V25.7076H7.55632V20.8042ZM7.55632 8.76736V3.66217H10.7308V8.76396L7.55632 8.76736ZM10.8373 15.0868H13.5175V20.7033H10.8373V15.0868ZM10.8373 14.6809V8.86826H13.5175V14.6809H10.8373ZM13.5175 8.76396H10.8373V3.66217H13.5175V8.76396ZM3.7005 3.66217V8.76396H1.16774V3.66217H3.7005ZM1.16774 20.8042H3.7005V25.7076H1.16774V20.8042ZM10.8373 25.7076V20.8042H13.5175V25.7076H10.8373Z" fill="#EBEBEB"/>
  <path d="M56.6798 8.02344H18.3359V33.7047H56.6798V8.02344Z" fill="#F5F5F5"/>
  <path d="M56.6798 8.02344H18.3359V10.5891H56.6798V8.02344Z" fill="#EBEBEB"/>
  <path d="M19.9964 9.30377C20.001 9.36603 19.9867 9.42821 19.9554 9.48221C19.9241 9.53622 19.8772 9.57954 19.821 9.60654C19.7647 9.63353 19.7016 9.64295 19.6399 9.63355C19.5782 9.62416 19.5207 9.5964 19.475 9.55388C19.4293 9.51136 19.3975 9.45606 19.3837 9.39519C19.3699 9.33432 19.3747 9.2707 19.3976 9.21262C19.4205 9.15454 19.4603 9.1047 19.5119 9.0696C19.5635 9.03449 19.6245 9.01575 19.6869 9.01581C19.7661 9.01305 19.8432 9.04182 19.9012 9.0958C19.9592 9.14979 19.9935 9.22458 19.9964 9.30377Z" fill="#FAFAFA"/>
  <path d="M20.9964 9.30377C21.001 9.36603 20.9867 9.42821 20.9554 9.48221C20.9241 9.53622 20.8772 9.57954 20.821 9.60654C20.7647 9.63353 20.7016 9.64295 20.6399 9.63355C20.5782 9.62416 20.5207 9.5964 20.475 9.55388C20.4293 9.51136 20.3975 9.45606 20.3837 9.39519C20.3699 9.33432 20.3747 9.2707 20.3976 9.21262C20.4205 9.15454 20.4603 9.1047 20.5119 9.0696C20.5635 9.03449 20.6245 9.01575 20.6869 9.01581C20.7661 9.01305 20.8432 9.04182 20.9012 9.0958C20.9592 9.14979 20.9935 9.22458 20.9964 9.30377Z" fill="#FAFAFA"/>
  <path d="M21.9966 9.30377C22.0012 9.36603 21.9869 9.42821 21.9556 9.48221C21.9243 9.53622 21.8774 9.57954 21.8212 9.60654C21.7649 9.63353 21.7018 9.64295 21.6401 9.63355C21.5783 9.62416 21.5209 9.5964 21.4752 9.55388C21.4295 9.51136 21.3977 9.45606 21.3839 9.39519C21.37 9.33432 21.3749 9.2707 21.3978 9.21262C21.4206 9.15454 21.4605 9.1047 21.5121 9.0696C21.5637 9.03449 21.6247 9.01575 21.6871 9.01581C21.7663 9.01305 21.8434 9.04182 21.9014 9.0958C21.9594 9.14979 21.9937 9.22458 21.9966 9.30377Z" fill="#FAFAFA"/>
  <path d="M68.4185 13.0977H60.7148V23.1436L68.4185 23.3375V13.0977Z" fill="#EBEBEB"/>
  <path d="M67.9121 13.457H61.1709V22.5677L67.9121 22.7956V13.457Z" fill="#FAFAFA"/>
  <path d="M66.7314 15.1115L62.2577 14.9414V21.3096H66.7314V15.1115Z" fill="#EBEBEB"/>
  <path d="M62.2577 21.3096L66.7314 18.0376L62.2577 14.9414V21.3096Z" fill="#F5F5F5"/>
  <path d="M67.5692 6.02831L63.2815 5.89453V11.4861L67.5692 11.5938V6.02831Z" fill="#EBEBEB"/>
  <path d="M67.2867 6.27175L63.5352 6.09375V11.1638L67.2867 11.2908V6.27175Z" fill="#FAFAFA"/>
  <path d="M66.6305 7.01597L64.1409 6.92188V10.4659H66.6305V7.01597Z" fill="#EBEBEB"/>
  <path d="M64.1409 10.4659L66.6305 8.64515L64.1409 6.92188V10.4659Z" fill="#F5F5F5"/>
  <path d="M38.0707 1.29297L37.6602 5.10457H42.9219L43.3584 1.29297H38.0707Z" fill="#EBEBEB"/>
  <path d="M38.2869 1.54297L37.8867 4.87841H42.6359L43.0203 1.54297H38.2869Z" fill="#FAFAFA"/>
  <path d="M39.0868 2.12891L38.8408 4.34308H41.8373L41.9915 2.12891H39.0868Z" fill="#EBEBEB"/>
  <path d="M44.9366 0L44.3856 5.10519H51.4351L52.0201 0H44.9366Z" fill="#EBEBEB"/>
  <path d="M45.2257 0.335938L44.6906 4.80397H51.0531L51.5678 0.335938H45.2257Z" fill="#FAFAFA"/>
  <path d="M46.2967 1.11719L45.9668 4.0819H49.9813L50.1877 1.11719H46.2967Z" fill="#EBEBEB"/>
  <path d="M54.6515 5.10547H34.1219V5.69274H54.6515V5.10547Z" fill="#EBEBEB"/>
  <path d="M37.6342 7.11991L36.7351 5.69141H38.0706V7.11991H37.6342Z" fill="#EBEBEB"/>
  <path d="M37.1689 5.69141L37.9637 7.11991H38.0703V5.69141H37.1689Z" fill="#E0E0E0"/>
  <path d="M49.4791 7.11991L48.5801 5.69141H49.9156V7.11991H49.4791Z" fill="#EBEBEB"/>
  <path d="M49.0146 5.69141L49.8094 7.11991H49.9159V5.69141H49.0146Z" fill="#E0E0E0"/>
  <path d="M9.5642 40.0167C11.4541 38.781 11.9337 36.4126 11.9122 34.2744C11.9122 33.9173 11.9575 33.542 11.7931 33.2245C11.6287 32.9071 11.2331 32.6849 10.9054 32.8266C10.6344 32.9456 10.5097 33.2506 10.3533 33.5068C10.1434 33.8431 9.84276 34.1131 9.48598 34.2857C9.25356 34.3991 8.96673 34.4626 8.74225 34.3333C8.43501 34.1565 8.40893 33.7302 8.41914 33.3753L8.48036 31.3924C8.51099 31.0381 8.48303 30.6811 8.3976 30.3358C8.29443 29.9957 8.05748 29.6782 7.71736 29.5751C7.37724 29.4719 6.94982 29.6567 6.86933 30.0025C6.85227 30.1492 6.84545 30.297 6.84892 30.4446C6.83531 30.5909 6.76162 30.753 6.62217 30.7848C6.48272 30.8165 6.33647 30.719 6.23104 30.6124C5.86938 30.2451 5.62789 29.778 5.40455 29.3132C5.1812 28.8483 4.95899 28.3744 4.63021 27.9754C4.30142 27.5763 3.84566 27.2554 3.33095 27.2146C2.81624 27.1738 2.26071 27.4743 2.12466 27.9697C1.98861 28.4651 2.26524 28.9821 2.57815 29.3948C3.04168 30.0075 3.59115 30.55 4.20959 31.0058C4.33051 31.0753 4.42589 31.1819 4.48169 31.3097C4.55425 31.5478 4.32183 31.7768 4.08261 31.8493C3.81279 31.931 3.52255 31.8969 3.24139 31.9219C2.96022 31.9468 2.65411 32.0625 2.54187 32.3221C2.38542 32.6815 2.68359 33.0681 2.97949 33.3243C3.57448 33.8388 4.25319 34.2476 4.9862 34.5329C5.24809 34.6338 5.52359 34.7245 5.73219 34.9127C5.9408 35.1009 6.06211 35.424 5.9272 35.67C5.79228 35.916 5.4601 35.9897 5.18347 35.9319C4.90684 35.8741 4.66422 35.721 4.40233 35.6156C3.91255 35.4194 3.2686 35.4387 2.94775 35.8525C2.84768 35.9946 2.78231 36.1581 2.75691 36.33C2.73151 36.5019 2.74678 36.6774 2.8015 36.8423C2.91474 37.171 3.09285 37.4737 3.32528 37.7323C4.08895 38.6814 5.08978 39.412 6.2265 39.8501C7.36023 40.2695 8.42254 40.4011 9.57101 40.0167" fill="#28A745"/>
  <path d="M2.64978 27.4961L2.68379 27.5301L2.7881 27.6276C2.88106 27.7115 3.01484 27.8362 3.18717 28.0006C3.66964 28.4648 4.11646 28.9647 4.52384 29.496C4.78346 29.8361 5.05216 30.2102 5.33332 30.6229C5.61449 31.0356 5.91153 31.4778 6.20516 31.9551C6.51635 32.4517 6.80021 32.9649 7.05546 33.4924C7.18697 33.7668 7.30375 34.0536 7.42279 34.3461L7.78218 35.2349C8.24617 36.3598 8.64589 37.5101 8.9794 38.6804C9.24794 39.6364 9.42484 40.6158 9.50772 41.6054C9.56118 42.2731 9.55587 42.9442 9.49185 43.611C9.46804 43.8468 9.44537 44.0293 9.42496 44.1529C9.41702 44.2118 9.41022 44.2583 9.40455 44.2935C9.40356 44.3093 9.40356 44.3252 9.40455 44.3411C9.41055 44.3262 9.41437 44.3106 9.41589 44.2946L9.4431 44.1551C9.46691 44.0316 9.49412 43.849 9.52246 43.6132C9.59637 42.9453 9.60852 42.2721 9.55874 41.602C9.48165 40.6083 9.30813 39.6245 9.04062 38.6645C8.70973 37.4911 8.31074 36.3381 7.84567 35.2111L7.48628 34.3212C7.36724 34.0298 7.24933 33.7407 7.11555 33.4652C6.85959 32.9355 6.57381 32.4207 6.25958 31.9233C5.96254 31.446 5.66437 31.0039 5.38094 30.5912C5.09751 30.1785 4.82655 29.7976 4.56352 29.4677C4.15067 28.9368 3.69571 28.4402 3.20304 27.9825C3.02958 27.8203 2.89127 27.6979 2.79603 27.6174L2.68266 27.5256C2.67268 27.5147 2.66167 27.5048 2.64978 27.4961Z" fill="#263238"/>
  <path d="M7.09513 33.4613C7.11363 33.4126 7.12656 33.3621 7.13368 33.3105C7.15522 33.213 7.18129 33.0713 7.21077 32.8955C7.26972 32.543 7.33548 32.0543 7.40577 31.5147C7.47606 30.975 7.54749 30.4886 7.61211 30.1383C7.64385 29.9626 7.67107 29.822 7.69147 29.7234C7.70497 29.6734 7.71295 29.622 7.71528 29.5703C7.69346 29.6174 7.6771 29.6669 7.66653 29.7177C7.63932 29.8141 7.60417 29.9547 7.56676 30.1292C7.48967 30.4784 7.41031 30.9659 7.34002 31.5056C7.26972 32.0452 7.21077 32.5203 7.16429 32.8876C7.14161 33.0543 7.12347 33.1937 7.10873 33.306C7.0981 33.357 7.09353 33.4092 7.09513 33.4613Z" fill="#263238"/>
  <path d="M2.49335 32.5005C2.55365 32.5147 2.61513 32.5235 2.67701 32.5266C2.79039 32.5402 2.96725 32.5583 3.17812 32.5866C3.59987 32.6422 4.18147 32.7386 4.81636 32.8723C5.45125 33.0061 6.02265 33.1546 6.43193 33.2726C6.63714 33.3292 6.80153 33.3803 6.91603 33.4154C6.97396 33.4374 7.03398 33.4533 7.09516 33.463C7.0403 33.4339 6.98303 33.4097 6.92397 33.3905C6.8106 33.3485 6.64961 33.2907 6.44553 33.2272C6.03853 33.098 5.46826 32.9438 4.82997 32.8077C4.19168 32.6717 3.60894 32.581 3.18379 32.5402C2.97178 32.5175 2.79832 32.5062 2.67928 32.5005C2.61744 32.4946 2.55519 32.4946 2.49335 32.5005Z" fill="#263238"/>
  <path d="M8.98364 38.5787C8.99734 38.5619 9.00843 38.5432 9.01652 38.5231L9.09928 38.3598C9.17184 38.2181 9.26934 38.0107 9.38725 37.751C9.62307 37.2341 9.92577 36.5096 10.2489 35.7103C10.572 34.911 10.8679 34.1798 11.0935 33.6583C11.2069 33.4043 11.2931 33.1957 11.3611 33.0415L11.4325 32.8726C11.4417 32.8534 11.449 32.8332 11.454 32.8125C11.4403 32.829 11.4289 32.8473 11.42 32.8669C11.3985 32.9111 11.3701 32.9656 11.3373 33.0302C11.2658 33.1719 11.1683 33.3805 11.0504 33.639C10.8146 34.156 10.5119 34.8861 10.1877 35.6854C9.86342 36.4847 9.56865 37.2159 9.34417 37.7374L9.07661 38.3519L9.00518 38.5197C8.99531 38.5383 8.98806 38.5581 8.98364 38.5787Z" fill="#263238"/>
  <path d="M2.88989 36.4766C2.90855 36.4881 2.92879 36.4969 2.94998 36.5026L3.12684 36.5661L3.77987 36.7929C4.33087 36.9845 5.0882 37.2566 5.92489 37.5593C6.76158 37.862 7.52345 38.1261 8.07898 38.3064C8.35675 38.3971 8.58236 38.4674 8.73881 38.5127L8.91908 38.5649C8.94004 38.5718 8.96172 38.5764 8.9837 38.5785C8.96496 38.5668 8.94475 38.5577 8.92361 38.5513L8.74675 38.4889L8.09372 38.2622C7.54273 38.0717 6.78539 37.7996 5.94757 37.4969C5.10974 37.1942 4.35014 36.9301 3.79348 36.7487C3.51571 36.6591 3.2901 36.5888 3.13364 36.5423L2.95338 36.4913C2.933 36.4835 2.91164 36.4785 2.88989 36.4766Z" fill="#263238"/>
  <path d="M61.0322 44.3146C61.0322 44.3316 48.3185 44.3441 32.6379 44.3441C16.9572 44.3441 4.2413 44.3316 4.2413 44.3146C4.2413 44.2976 16.9527 44.2852 32.6379 44.2852C48.323 44.2852 61.0322 44.2988 61.0322 44.3146Z" fill="#263238"/>
  <path d="M50.5594 10.207H11.9638C11.8056 10.207 11.649 10.2382 11.5028 10.2988C11.3566 10.3594 11.2239 10.4482 11.112 10.5601C11.0002 10.672 10.9116 10.8049 10.8511 10.9511C10.7907 11.0973 10.7596 11.254 10.7598 11.4122V38.6728C10.7596 38.831 10.7907 38.9877 10.8511 39.1339C10.9116 39.2801 11.0002 39.4129 11.112 39.5249C11.2239 39.6368 11.3566 39.7256 11.5028 39.7862C11.649 39.8467 11.8056 39.8779 11.9638 39.8779H26.7772C26.7772 39.8779 27.7193 42.7916 24.7977 44.2995H38.6485C38.6485 44.2995 35.3516 43.1657 36.1996 39.8779H50.5594C50.8791 39.8779 51.1856 39.7509 51.4116 39.5249C51.6376 39.2989 51.7646 38.9924 51.7646 38.6728V11.4122C51.7646 11.0926 51.6376 10.786 51.4116 10.56C51.1856 10.334 50.8791 10.207 50.5594 10.207Z" fill="#263238"/>
  <path d="M31.8177 36.9997C32.3426 37.7502 31.5207 38.5722 30.7701 38.0472C30.7451 38.0296 30.7232 38.0077 30.7055 37.9826C30.1817 37.2321 31.0025 36.4113 31.7531 36.9351C31.7781 36.9528 31.8 36.9746 31.8177 36.9997Z" fill="#455A64"/>
  <path d="M50.4821 11.5859H12.0407C11.8359 11.5859 11.67 11.7519 11.67 11.9567V34.4567C11.67 34.6614 11.8359 34.8274 12.0407 34.8274H50.4821C50.6869 34.8274 50.8528 34.6614 50.8528 34.4567V11.9567C50.8528 11.7519 50.6869 11.5859 50.4821 11.5859Z" fill="#E0E0E0"/>
  <path d="M50.8528 13.2891H11.67V34.8277H50.8528V13.2891Z" fill="#FAFAFA"/>
  <path d="M14.8846 12.4809C14.8846 12.5428 14.8663 12.6033 14.8319 12.6547C14.7975 12.7062 14.7487 12.7463 14.6915 12.77C14.6343 12.7937 14.5714 12.7999 14.5107 12.7878C14.45 12.7757 14.3942 12.7459 14.3505 12.7021C14.3067 12.6584 14.2769 12.6026 14.2648 12.5419C14.2528 12.4812 14.259 12.4183 14.2826 12.3611C14.3063 12.304 14.3464 12.2551 14.3979 12.2207C14.4493 12.1863 14.5098 12.168 14.5717 12.168C14.6547 12.168 14.7343 12.2009 14.793 12.2596C14.8517 12.3183 14.8846 12.3979 14.8846 12.4809Z" fill="#28A745"/>
  <path d="M12.9872 12.4809C12.9872 12.5428 12.9688 12.6033 12.9344 12.6547C12.9001 12.7062 12.8512 12.7463 12.794 12.77C12.7368 12.7937 12.6739 12.7999 12.6132 12.7878C12.5525 12.7757 12.4968 12.7459 12.453 12.7021C12.4092 12.6584 12.3794 12.6026 12.3674 12.5419C12.3553 12.4812 12.3615 12.4183 12.3852 12.3611C12.4089 12.304 12.449 12.2551 12.5004 12.2207C12.5519 12.1863 12.6124 12.168 12.6743 12.168C12.7573 12.168 12.8368 12.2009 12.8955 12.2596C12.9542 12.3183 12.9872 12.3979 12.9872 12.4809Z" fill="#28A745"/>
  <path d="M13.8983 12.4809C13.8983 12.5428 13.88 12.6033 13.8456 12.6547C13.8112 12.7062 13.7623 12.7463 13.7051 12.77C13.648 12.7937 13.5851 12.7999 13.5244 12.7878C13.4637 12.7757 13.4079 12.7459 13.3641 12.7021C13.3204 12.6584 13.2906 12.6026 13.2785 12.5419C13.2664 12.4812 13.2726 12.4183 13.2963 12.3611C13.32 12.304 13.3601 12.2551 13.4116 12.2207C13.463 12.1863 13.5235 12.168 13.5854 12.168C13.6684 12.168 13.748 12.2009 13.8067 12.2596C13.8653 12.3183 13.8983 12.3979 13.8983 12.4809Z" fill="#28A745"/>
  <path d="M30.9767 23.3169C30.9767 23.3339 29.5414 23.3486 27.7717 23.3486C26.0019 23.3486 24.5655 23.3339 24.5655 23.3169C24.5655 23.2999 26.0008 23.2852 27.7717 23.2852C29.5425 23.2852 30.9767 23.2988 30.9767 23.3169Z" fill="#455A64"/>
  <path d="M30.9767 24.1735C30.9767 24.1905 29.5414 24.2052 27.7717 24.2052C26.0019 24.2052 24.5655 24.1905 24.5655 24.1735C24.5655 24.1565 26.0008 24.1406 27.7717 24.1406C29.5425 24.1406 30.9767 24.1554 30.9767 24.1735Z" fill="#455A64"/>
  <path d="M28.4077 25.0317C28.4077 25.0499 27.5483 25.0646 26.4871 25.0646C25.426 25.0646 24.5655 25.0499 24.5655 25.0317C24.5655 25.0136 25.426 25 26.4871 25C27.5483 25 28.4077 25.0147 28.4077 25.0317Z" fill="#455A64"/>
  <path d="M27.6141 14.5469H24.5655V14.9335H27.6141V14.5469Z" fill="#455A64"/>
  <path d="M31.2647 15.793H24.5655V22.2745H31.2647V15.793Z" fill="#E0E0E0"/>
  <path d="M25.084 21.7182L26.9377 18.3828L28.4535 20.5154L29.3741 19.3828L30.7447 21.7182H25.084Z" fill="#28A745"/>
  <path d="M28.6176 18.2176C28.8837 18.2176 29.0994 18.0019 29.0994 17.7357C29.0994 17.4696 28.8837 17.2539 28.6176 17.2539C28.3515 17.2539 28.1358 17.4696 28.1358 17.7357C28.1358 18.0019 28.3515 18.2176 28.6176 18.2176Z" fill="#28A745"/>
  <path d="M30.7448 21.7399C30.7436 21.7313 30.7436 21.7225 30.7448 21.7139C30.7448 21.6935 30.7448 21.6696 30.7448 21.6379C30.7448 21.5687 30.7448 21.4712 30.7448 21.3465C30.7448 21.0892 30.7448 20.7173 30.738 20.2457C30.738 19.299 30.7301 17.951 30.7244 16.332L30.7516 16.3593H25.092C25.0841 16.3661 25.151 16.2992 25.1227 16.3286V17.7821C25.1227 18.2582 25.1227 18.7253 25.1227 19.1788C25.1227 20.0858 25.1227 20.9452 25.1227 21.7343L25.0943 21.7059L29.1871 21.7207L30.3412 21.7275H30.6473H30.7267H30.6507H30.3492L29.2018 21.7343L25.0909 21.749H25.0637V21.7207C25.0637 20.9271 25.0637 20.0734 25.0637 19.1652C25.0637 18.7117 25.0637 18.2446 25.0637 17.7685V16.3343C25.0354 16.3615 25.1022 16.2935 25.0966 16.3014H30.7562H30.7834V16.3286C30.7777 17.9544 30.7732 19.3081 30.7698 20.2593C30.7698 20.7287 30.7641 21.0982 30.7618 21.3545C30.7618 21.4769 30.7618 21.5721 30.7618 21.6402C30.7618 21.6708 30.7618 21.6946 30.7618 21.7127C30.757 21.7223 30.7513 21.7314 30.7448 21.7399Z" fill="#455A64"/>
  <path d="M39.1439 23.3169C39.1439 23.3339 37.7086 23.3486 35.9377 23.3486C34.1668 23.3486 32.7326 23.3339 32.7326 23.3169C32.7326 23.2999 34.1668 23.2852 35.9377 23.2852C37.7086 23.2852 39.1439 23.2988 39.1439 23.3169Z" fill="#455A64"/>
  <path d="M39.1439 24.1735C39.1439 24.1905 37.7086 24.2052 35.9377 24.2052C34.1668 24.2052 32.7326 24.1905 32.7326 24.1735C32.7326 24.1565 34.1668 24.1406 35.9377 24.1406C37.7086 24.1406 39.1439 24.1554 39.1439 24.1735Z" fill="#455A64"/>
  <path d="M36.5753 25.0317C36.5753 25.0499 35.7148 25.0646 34.6537 25.0646C33.5925 25.0646 32.7354 25.0499 32.7354 25.0317C32.7354 25.0136 33.5948 25 34.6559 25C35.7171 25 36.5753 25.0147 36.5753 25.0317Z" fill="#455A64"/>
  <path d="M35.7812 14.5469H32.7326V14.9335H35.7812V14.5469Z" fill="#455A64"/>
  <path d="M39.4318 15.793H32.7326V22.2745H39.4318V15.793Z" fill="#E0E0E0"/>
  <path d="M33.2519 21.7182L35.1044 18.3828L36.6202 20.5154L37.5419 19.3828L38.9114 21.7182H33.2519Z" fill="#28A745"/>
  <path d="M37.2698 17.7357C37.27 17.8314 37.2419 17.9249 37.1889 18.0045C37.1359 18.0841 37.0605 18.1462 36.9722 18.1829C36.8839 18.2196 36.7867 18.2292 36.6929 18.2106C36.5991 18.192 36.5129 18.146 36.4453 18.0784C36.3777 18.0108 36.3317 17.9246 36.3131 17.8308C36.2945 17.737 36.3042 17.6398 36.3408 17.5515C36.3775 17.4632 36.4396 17.3878 36.5192 17.3348C36.5988 17.2818 36.6923 17.2537 36.788 17.2539C36.9158 17.2539 37.0383 17.3047 37.1287 17.395C37.219 17.4854 37.2698 17.608 37.2698 17.7357Z" fill="#28A745"/>
  <path d="M38.9113 21.7399C38.9113 21.7399 38.9113 21.7309 38.9113 21.7139C38.9113 21.6969 38.9113 21.6696 38.9113 21.6379C38.9113 21.5687 38.9113 21.4712 38.9113 21.3465C38.9113 21.0892 38.9113 20.7173 38.9045 20.2457C38.9045 19.299 38.8954 17.951 38.8897 16.332L38.9169 16.3593H33.2573C33.2494 16.3661 33.3174 16.2992 33.2891 16.3286V17.7821C33.2891 18.2582 33.2891 18.7253 33.2891 19.1788C33.2891 20.0858 33.2891 20.9452 33.2891 21.7343L33.2619 21.7059L37.3546 21.7207L38.5088 21.7275H38.8149H38.8943H38.8172H38.5167L37.3683 21.7343L33.2585 21.749H33.2301V21.7207C33.2301 20.9271 33.2301 20.0734 33.2301 19.1652V16.3343C33.2007 16.3615 33.2687 16.2935 33.2619 16.3014H38.9215H38.9498V16.3286C38.943 17.9544 38.9385 19.3081 38.9351 20.2593C38.9351 20.7287 38.9294 21.0982 38.9283 21.3545C38.9283 21.4769 38.9283 21.5721 38.9283 21.6402C38.9283 21.6708 38.9283 21.6946 38.9283 21.7127C38.9242 21.7227 38.9184 21.7319 38.9113 21.7399Z" fill="#455A64"/>
  <path d="M27.8281 26.2266H24.7795V26.6132H27.8281V26.2266Z" fill="#455A64"/>
  <path d="M31.4788 27.4727H24.7795V33.9542H31.4788V27.4727Z" fill="#E0E0E0"/>
  <path d="M25.2988 33.3979L27.1524 30.0625L28.6682 32.1939L29.5888 31.0624L30.9595 33.3979H25.2988Z" fill="#28A745"/>
  <path d="M29.3144 29.4166C29.3144 29.5121 29.2861 29.6055 29.233 29.6849C29.1799 29.7643 29.1045 29.8262 29.0162 29.8628C28.928 29.8993 28.8309 29.9089 28.7372 29.8903C28.6435 29.8716 28.5575 29.8256 28.4899 29.7581C28.4224 29.6905 28.3764 29.6045 28.3577 29.5108C28.3391 29.4171 28.3487 29.32 28.3852 29.2317C28.4218 29.1435 28.4837 29.0681 28.5631 29.015C28.6425 28.9619 28.7359 28.9336 28.8314 28.9336C28.8949 28.9334 28.9578 28.9458 29.0164 28.9701C29.0751 28.9943 29.1284 29.0298 29.1733 29.0747C29.2181 29.1196 29.2537 29.1729 29.2779 29.2316C29.3022 29.2902 29.3145 29.3531 29.3144 29.4166Z" fill="#28A745"/>
  <path d="M30.959 33.4173C30.959 33.4173 30.959 33.4071 30.959 33.3901C30.959 33.3731 30.959 33.3459 30.959 33.3142C30.959 33.2461 30.959 33.1486 30.959 33.0228C30.959 32.7666 30.959 32.3947 30.9511 31.9219C30.9511 30.9753 30.9431 29.6273 30.9375 28.0094L30.9647 28.0367H25.3051L25.3368 28.0049V28.3756C25.3368 28.4981 25.3368 28.6205 25.3368 28.7418V30.8608C25.3368 31.7678 25.3368 32.626 25.3368 33.4162L25.3085 33.3879L29.4013 33.4026L30.5554 33.4094H30.8626H30.942C30.951 33.4085 30.9602 33.4085 30.9692 33.4094H30.8683H30.5679L29.4194 33.4173L25.3085 33.4309H25.2813V33.4037C25.2813 32.6101 25.2813 31.7553 25.2813 30.8483C25.2813 30.3948 25.2813 29.9292 25.2813 29.4515V28.0094L25.3142 27.9766H30.9737H31.001V28.0049C30.9953 29.6307 30.9908 30.9843 30.9873 31.9356C30.9873 32.4049 30.9873 32.7745 30.9805 33.0296C30.9805 33.1532 30.9805 33.2484 30.9805 33.3164C30.9805 33.3459 30.9805 33.3697 30.9805 33.389C30.9757 33.4 30.9683 33.4097 30.959 33.4173Z" fill="#455A64"/>
  <path d="M36.0008 26.2266H32.9522V26.6132H36.0008V26.2266Z" fill="#455A64"/>
  <path d="M39.6514 27.4727H32.9522V33.9542H39.6514V27.4727Z" fill="#E0E0E0"/>
  <path d="M33.4718 33.3979L35.3255 30.0625L36.8413 32.1939L37.7619 31.0624L39.1326 33.3979H33.4718Z" fill="#28A745"/>
  <path d="M37.4862 29.4166C37.4859 29.5118 37.4575 29.6049 37.4044 29.6839C37.3513 29.763 37.276 29.8246 37.1879 29.8609C37.0999 29.8972 37.003 29.9066 36.9096 29.8879C36.8162 29.8691 36.7305 29.8232 36.6632 29.7557C36.5959 29.6883 36.5502 29.6025 36.5317 29.509C36.5132 29.4156 36.5228 29.3188 36.5593 29.2308C36.5958 29.1428 36.6575 29.0676 36.7368 29.0147C36.816 28.9618 36.9091 28.9336 37.0043 28.9336C37.0677 28.9336 37.1304 28.9461 37.189 28.9704C37.2475 28.9947 37.3007 29.0303 37.3454 29.0751C37.3902 29.12 37.4257 29.1732 37.4498 29.2318C37.474 29.2904 37.4863 29.3532 37.4862 29.4166Z" fill="#28A745"/>
  <path d="M39.133 33.4173C39.1322 33.4083 39.1322 33.3992 39.133 33.3901C39.133 33.3709 39.133 33.3459 39.133 33.3142C39.133 33.2461 39.133 33.1486 39.133 33.0228C39.133 32.7666 39.133 32.3947 39.1262 31.9219C39.1262 30.9753 39.1183 29.6273 39.1126 28.0094L39.1398 28.0367H33.4791L33.5108 28.0049V29.4606C33.5108 29.9368 33.5108 30.4024 33.5108 30.8574C33.5108 31.7644 33.5108 32.6226 33.5108 33.4128L33.4825 33.3845L37.5752 33.3992L38.7294 33.406H39.0355H39.1149H39.1432H39.0423H38.7407L37.5934 33.4139L33.4825 33.4275H33.4541V33.4003C33.4541 32.6067 33.4541 31.7519 33.4541 30.8449C33.4541 30.3914 33.4541 29.9258 33.4541 29.4481V28.0094L33.4859 27.9766H39.1466H39.1738V28.0049C39.1681 29.6307 39.1636 30.9843 39.1602 31.9356C39.1602 32.4049 39.1545 32.7745 39.1523 33.0296C39.1523 33.1532 39.1523 33.2484 39.1523 33.3164C39.1523 33.3459 39.1523 33.3697 39.1523 33.389C39.1467 33.399 39.1403 33.4085 39.133 33.4173Z" fill="#455A64"/>
  <path d="M44.4334 26.2266H41.3848V26.6132H44.4334V26.2266Z" fill="#455A64"/>
  <path d="M48.084 27.4727H41.3848V33.9542H48.084V27.4727Z" fill="#E0E0E0"/>
  <path d="M41.9045 33.3979L43.7582 30.0625L45.274 32.1939L46.1946 31.0624L47.5653 33.3979H41.9045Z" fill="#28A745"/>
  <path d="M45.9203 29.4166C45.9203 29.5121 45.8919 29.6055 45.8389 29.6849C45.7858 29.7643 45.7104 29.8262 45.6221 29.8628C45.5339 29.8993 45.4368 29.9089 45.3431 29.8903C45.2494 29.8716 45.1633 29.8256 45.0958 29.7581C45.0282 29.6905 44.9822 29.6045 44.9636 29.5108C44.945 29.4171 44.9545 29.32 44.9911 29.2317C45.0276 29.1435 45.0895 29.0681 45.169 29.015C45.2484 28.9619 45.3418 28.9336 45.4373 28.9336C45.5008 28.9334 45.5636 28.9458 45.6223 28.9701C45.6809 28.9943 45.7343 29.0298 45.7791 29.0747C45.824 29.1196 45.8596 29.1729 45.8838 29.2316C45.908 29.2902 45.9204 29.3531 45.9203 29.4166Z" fill="#28A745"/>
  <path d="M47.5655 33.4173C47.5655 33.4173 47.5655 33.4071 47.5655 33.3901C47.5655 33.3731 47.5655 33.3459 47.5655 33.3142C47.5655 33.2461 47.5655 33.1486 47.5655 33.0228C47.5655 32.7666 47.5655 32.3947 47.5575 31.9219C47.5575 30.9753 47.5496 29.6273 47.5439 28.0094L47.5711 28.0367H41.9115L41.9433 28.0049V30.8574C41.9433 31.7644 41.9433 32.6226 41.9433 33.4128L41.9149 33.3845L46.0077 33.3992L47.1618 33.406H47.4691H47.5473C47.5567 33.4051 47.5662 33.4051 47.5757 33.406H47.4748H47.1743L46.0258 33.4139L41.9149 33.4275H41.8877V33.4003C41.8877 32.6067 41.8877 31.7519 41.8877 30.8449C41.8877 30.3914 41.8877 29.9258 41.8877 29.4481V28.0094L41.9206 27.9766H47.5802H47.6074V28.0049C47.6017 29.6307 47.5972 30.9843 47.5938 31.9356C47.5938 32.4049 47.5881 32.7745 47.587 33.0296C47.587 33.1532 47.587 33.2484 47.587 33.3164C47.587 33.3459 47.587 33.3697 47.587 33.389C47.5822 33.4 47.5748 33.4097 47.5655 33.4173Z" fill="#455A64"/>
  <path d="M47.458 22.2754C47.7016 22.244 47.9474 22.2334 48.1927 22.2436L48.161 22.2754V22.2028C48.161 22.1779 48.161 22.154 48.161 22.1302C48.161 22.0826 48.161 22.0373 48.161 21.9919C48.161 21.9114 48.161 21.8332 48.1678 21.7584C48.1643 21.6858 48.172 21.6132 48.1904 21.543C48.2074 21.6135 48.2147 21.6859 48.212 21.7584C48.212 21.8332 48.212 21.9114 48.2188 21.9919C48.2188 22.0373 48.2188 22.0826 48.2188 22.1302V22.2754L48.1859 22.3082C47.9428 22.3187 47.6992 22.3077 47.458 22.2754Z" fill="#455A64"/>
  <path d="M44.1164 22.2739C44.6726 22.2316 45.2313 22.2316 45.7875 22.2739C45.2313 22.3178 44.6726 22.3178 44.1164 22.2739Z" fill="#455A64"/>
  <path d="M41.7111 21.5391C41.7431 21.7826 41.7538 22.0284 41.7429 22.2737L41.7111 22.242H41.998L42.2315 22.2488C42.304 22.2469 42.3764 22.2545 42.4469 22.2715C42.3767 22.2898 42.3041 22.2974 42.2315 22.2941L41.998 22.3009H41.8597H41.7111L41.6794 22.2681C41.6695 22.0246 41.6801 21.7807 41.7111 21.5391Z" fill="#455A64"/>
  <path d="M41.7104 18.1992C41.7424 18.4765 41.753 18.7559 41.7421 19.0348C41.753 19.3133 41.7424 19.5923 41.7104 19.8692C41.679 19.5922 41.6684 19.3133 41.6786 19.0348C41.6684 18.7559 41.679 18.4766 41.7104 18.1992Z" fill="#455A64"/>
  <path d="M42.4464 15.7932C42.2026 15.8251 41.9564 15.8358 41.7107 15.8249L41.7424 15.7932V15.9394C41.7424 15.9859 41.7424 16.0324 41.7424 16.0777C41.7424 16.1582 41.7424 16.2353 41.7356 16.3113C41.7389 16.3838 41.7313 16.4564 41.7129 16.5267C41.6946 16.4564 41.6869 16.3838 41.6902 16.3113C41.6902 16.2353 41.6902 16.1582 41.6834 16.0777C41.6834 16.0324 41.6834 15.9859 41.6834 15.9394C41.6834 15.9156 41.6834 15.8907 41.6834 15.8657V15.7932L41.7152 15.7614C41.9594 15.7515 42.204 15.7621 42.4464 15.7932Z" fill="#455A64"/>
  <path d="M45.7875 15.7935C45.2313 15.8358 44.6726 15.8358 44.1164 15.7935C44.6726 15.7511 45.2313 15.7511 45.7875 15.7935Z" fill="#455A64"/>
  <path d="M48.1934 16.5286C48.1607 16.2848 48.1497 16.0386 48.1605 15.7928C48.2251 15.8563 48.1787 15.811 48.1923 15.8246H48.0403H47.902L47.6685 15.8178C47.5959 15.8211 47.5233 15.8134 47.4531 15.7951C47.5233 15.7768 47.5959 15.7691 47.6685 15.7724L47.902 15.7656H48.1877L48.2206 15.7974C48.232 16.0415 48.2229 16.2861 48.1934 16.5286Z" fill="#455A64"/>
  <path d="M48.1933 19.8731C48.1605 19.5963 48.1495 19.3173 48.1604 19.0387C48.1495 18.7597 48.1605 18.4804 48.1933 18.2031C48.2246 18.4805 48.2352 18.7598 48.225 19.0387C48.2353 19.3172 48.2247 19.5961 48.1933 19.8731Z" fill="#455A64"/>
  <path d="M48.0989 23.3091C48.0989 23.3261 46.6625 23.3408 44.8927 23.3408C43.123 23.3408 41.6866 23.3261 41.6866 23.3091C41.6866 23.2921 43.1219 23.2773 44.8927 23.2773C46.6636 23.2773 48.0989 23.2909 48.0989 23.3091Z" fill="#455A64"/>
  <path d="M48.0993 24.1657C48.0993 24.1827 46.6628 24.1974 44.8931 24.1974C43.1233 24.1974 41.6914 24.1816 41.6914 24.1657C41.6914 24.1498 43.1267 24.1328 44.8976 24.1328C46.6685 24.1328 48.0993 24.1475 48.0993 24.1657Z" fill="#455A64"/>
  <path d="M44.7352 14.5391H41.6866V14.9257H44.7352V14.5391Z" fill="#455A64"/>
  <path d="M21.4487 19.5847C21.4487 20.235 21.2558 20.8706 20.8946 21.4113C20.5333 21.952 20.0198 22.3734 19.419 22.6222C18.8183 22.8711 18.1572 22.9362 17.5194 22.8093C16.8816 22.6825 16.2958 22.3693 15.836 21.9095C15.3762 21.4497 15.0631 20.8639 14.9362 20.2261C14.8093 19.5883 14.8744 18.9273 15.1233 18.3265C15.3721 17.7257 15.7935 17.2122 16.3342 16.851C16.8749 16.4897 17.5106 16.2969 18.1608 16.2969C19.0328 16.2969 19.8691 16.6433 20.4857 17.2599C21.1023 17.8764 21.4487 18.7127 21.4487 19.5847Z" fill="#E0E0E0"/>
  <path d="M22.0983 26.7438C22.0983 26.7608 20.4113 26.7756 18.3309 26.7756C16.2505 26.7756 14.5623 26.7608 14.5623 26.7438C14.5623 26.7268 16.2493 26.7109 18.3309 26.7109C20.4124 26.7109 22.0983 26.7257 22.0983 26.7438Z" fill="#455A64"/>
  <path d="M22.0983 27.5825C22.0983 27.6007 20.4113 27.6143 18.3309 27.6143C16.2505 27.6143 14.5623 27.6007 14.5623 27.5825C14.5623 27.5644 16.2493 27.5508 18.3309 27.5508C20.4124 27.5508 22.0983 27.5587 22.0983 27.5825Z" fill="#455A64"/>
  <path d="M22.0983 28.409C22.0983 28.4272 20.4113 28.4408 18.3309 28.4408C16.2505 28.4408 14.5623 28.4272 14.5623 28.409C14.5623 28.3909 16.2493 28.375 18.3365 28.375C20.4237 28.375 22.0983 28.392 22.0983 28.409Z" fill="#455A64"/>
  <path d="M18.892 29.2622C18.892 29.2804 17.9136 29.294 16.7073 29.294C15.501 29.294 14.5215 29.2804 14.5215 29.2622C14.5215 29.2441 15.4999 29.2305 16.7073 29.2305C17.9147 29.2305 18.892 29.2452 18.892 29.2622Z" fill="#455A64"/>
  <path d="M14.5623 25.4219H19.7548V25.0421H14.5623V25.4219Z" fill="#455A64"/>
  <path d="M16.1045 22.0922C16.6832 22.5932 17.4229 22.8689 18.1883 22.8689C18.9537 22.8689 19.6935 22.5932 20.2721 22.0922C20.0975 21.4981 19.6735 20.7929 18.6429 20.6365C18.874 20.5347 19.0701 20.3673 19.2069 20.1551C19.3438 19.9429 19.4153 19.6952 19.4128 19.4427C19.4128 18.7284 18.8754 18.1479 18.2065 18.1445C17.5376 18.1411 16.9934 18.7182 16.99 19.4313C16.9853 19.6861 17.0561 19.9367 17.1934 20.1513C17.3308 20.366 17.5287 20.5352 17.762 20.6376C16.7145 20.7929 16.2825 21.5015 16.1045 22.0922Z" fill="#28A745"/>
  <path d="M17.4738 30.5625H14.5623V30.9174H17.4738V30.5625Z" fill="#28A745"/>
  <path d="M58.1466 18.2461L58.6432 19.9115C58.6697 19.9863 58.6846 20.0647 58.6874 20.144C58.6874 20.3786 58.4607 20.5634 58.2339 20.6065C57.9998 20.6319 57.763 20.604 57.5412 20.5249C57.48 20.7641 57.2011 20.865 56.9573 20.9104C55.8715 21.1124 54.7497 20.9725 53.7466 20.5102C54.1747 19.8972 54.5226 19.232 54.7817 18.5307L57.3145 18.644C57.4636 18.6602 57.6145 18.6475 57.7589 18.6066C57.8307 18.5849 57.8948 18.5431 57.9438 18.4863C57.9927 18.4295 58.0246 18.36 58.0355 18.2858" fill="#28A745"/>
  <path d="M55.2443 21.5C55.2761 21.314 55.2001 20.5318 55.2001 20.5318C55.2001 20.5318 54.487 20.4558 54.4439 19.7483C54.4008 19.0409 54.4439 17.4083 54.4439 17.4083L55.7432 16.7734L57.1739 17.8562L56.9574 21.3945L55.4099 22.7754L55.2443 21.5Z" fill="#FFBE9D"/>
  <path d="M54.5855 18.5974C54.5853 18.6154 54.5904 18.633 54.6002 18.6481C54.6101 18.6631 54.6242 18.6749 54.6407 18.682C54.6573 18.689 54.6755 18.691 54.6932 18.6876C54.7109 18.6842 54.7271 18.6757 54.7399 18.6631C54.7527 18.6504 54.7615 18.6343 54.7651 18.6166C54.7687 18.599 54.7669 18.5807 54.7601 18.5641C54.7533 18.5474 54.7417 18.5332 54.7267 18.5232C54.7118 18.5132 54.6942 18.5078 54.6762 18.5078C54.6644 18.5077 54.6526 18.5099 54.6416 18.5143C54.6306 18.5187 54.6206 18.5253 54.6122 18.5336C54.6037 18.542 54.597 18.5519 54.5924 18.5628C54.5879 18.5738 54.5855 18.5855 54.5855 18.5974Z" fill="#263238"/>
  <path d="M54.5031 18.5C54.5156 18.5125 54.5824 18.4558 54.6799 18.4501C54.7774 18.4444 54.85 18.4921 54.8602 18.4785C54.8704 18.4649 54.8534 18.4512 54.8217 18.4297C54.7784 18.4012 54.7271 18.3877 54.6754 18.3912C54.6241 18.3937 54.575 18.4133 54.536 18.4467C54.5031 18.4728 54.4917 18.4955 54.5031 18.5Z" fill="#263238"/>
  <path d="M55.6365 18.5974C55.6363 18.6154 55.6415 18.6331 55.6514 18.6482C55.6612 18.6633 55.6754 18.6751 55.692 18.6821C55.7086 18.6891 55.727 18.691 55.7446 18.6875C55.7623 18.6841 55.7786 18.6754 55.7914 18.6626C55.8041 18.6499 55.8128 18.6336 55.8162 18.6159C55.8197 18.5982 55.8178 18.5799 55.8108 18.5633C55.8038 18.5467 55.792 18.5325 55.7769 18.5226C55.7618 18.5128 55.7441 18.5076 55.7261 18.5078C55.7024 18.5078 55.6796 18.5173 55.6628 18.5341C55.646 18.5508 55.6365 18.5736 55.6365 18.5974Z" fill="#263238"/>
  <path d="M55.5787 18.4999C55.59 18.5123 55.6569 18.4556 55.7544 18.45C55.8519 18.4443 55.9256 18.4919 55.9358 18.4783C55.946 18.4647 55.929 18.4511 55.8961 18.4296C55.8531 18.4015 55.8023 18.388 55.751 18.3911C55.6998 18.3941 55.6509 18.4136 55.6116 18.4466C55.5821 18.4726 55.573 18.4953 55.5787 18.4999Z" fill="#263238"/>
  <path d="M55.5495 19.418C55.4006 19.494 55.2419 19.5489 55.0779 19.5812C55.1141 19.63 55.1654 19.6655 55.2239 19.6821C55.2823 19.6987 55.3446 19.6955 55.401 19.6731C55.4279 19.6668 55.4533 19.6551 55.4755 19.6386C55.4977 19.6222 55.5164 19.6014 55.5303 19.5775C55.5442 19.5537 55.5531 19.5272 55.5564 19.4997C55.5597 19.4723 55.5574 19.4445 55.5495 19.418Z" fill="#FAFAFA"/>
  <path d="M55.2001 20.5312C55.5364 20.5173 55.8617 20.4075 56.1377 20.2148C56.1377 20.2148 55.9257 20.7341 55.216 20.7046L55.2001 20.5312Z" fill="#EB996E"/>
  <path d="M59.2328 19.8903C59.1438 19.8937 59.0555 19.8738 58.9765 19.8325C58.86 19.7691 58.7632 19.675 58.6965 19.5604C58.6139 19.4176 58.5441 19.2677 58.4879 19.1126C58.3553 18.7838 58.2611 18.4777 58.1875 18.2555C58.1773 18.2203 58.167 18.1886 58.158 18.158C58.1537 18.1252 58.1477 18.0926 58.1398 18.0605C57.7532 16.5866 56.4562 16.31 56.2 16.31C55.9245 16.31 55.4427 16.1581 54.7409 16.8882C54.6347 16.997 54.5449 17.1208 54.4745 17.2555C54.3198 17.4502 54.213 17.6786 54.1627 17.9222C54.132 18.0364 54.1265 18.1559 54.1468 18.2725C54.1604 18.2725 54.1627 18.1398 54.2171 17.9324C54.2497 17.8118 54.2953 17.695 54.3532 17.5843C54.2921 17.8569 54.3171 18.1417 54.4246 18.3995L54.6763 18.3292L55.5833 18.0231C55.5005 17.7442 55.6218 17.3972 55.6898 17.2295H55.6967C55.903 18.2884 57.0696 18.3995 57.0696 18.3995L57.0118 20.4096C58.2101 20.1533 58.226 18.845 58.2181 18.5196C58.2725 18.7033 58.3428 18.9142 58.4312 19.1353C58.4905 19.2928 58.5641 19.4446 58.6512 19.5887C58.7247 19.711 58.8328 19.8088 58.9618 19.8699C59.0486 19.9111 59.1457 19.9253 59.2407 19.9107C59.2758 19.9075 59.3095 19.8949 59.3382 19.8744C59.3027 19.8774 59.2675 19.8827 59.2328 19.8903Z" fill="#28A745"/>
  <path d="M55.2273 19.3235C55.1756 19.3116 55.1227 19.3059 55.0697 19.3065C55.0447 19.3065 55.0198 19.3065 55.0153 19.2838C55.0118 19.2566 55.0165 19.2289 55.0289 19.2044C55.0504 19.1409 55.0719 19.074 55.0958 19.0026C55.1422 18.8586 55.1819 18.7283 55.2091 18.633C55.2279 18.5827 55.2397 18.5301 55.2443 18.4766C55.2177 18.5237 55.1971 18.574 55.1831 18.6262C55.149 18.7192 55.1048 18.853 55.0583 18.9935L54.9937 19.1965C54.9797 19.2286 54.9765 19.2644 54.9847 19.2985C54.9886 19.3071 54.9945 19.3147 55.0017 19.3208C55.009 19.3268 55.0175 19.3312 55.0266 19.3337C55.0405 19.3352 55.0546 19.3352 55.0685 19.3337C55.1217 19.3367 55.175 19.3332 55.2273 19.3235Z" fill="#263238"/>
  <path d="M56.8726 18.7476C56.6526 18.7045 56.4667 18.6739 56.4032 18.6694C56.4116 18.6321 56.4162 18.5941 56.4168 18.556C56.4158 18.4335 56.3761 18.3145 56.3034 18.2159C56.2366 18.124 56.1432 18.0548 56.0359 18.0175C55.9396 17.9832 55.8358 17.9754 55.7354 17.9948C55.648 18.0124 55.5662 18.0514 55.4974 18.1082C55.3961 18.1864 55.3252 18.2974 55.2967 18.4222C55.2887 18.4556 55.2845 18.4899 55.2842 18.5242C55.2824 18.5359 55.2824 18.5477 55.2842 18.5594C55.2842 18.5594 55.2842 18.5106 55.3092 18.4267C55.3419 18.3079 55.4133 18.2034 55.5121 18.1297C55.5788 18.0793 55.6565 18.0455 55.7389 18.0311C55.8444 18.0119 55.9533 18.0248 56.0515 18.0681C56.1497 18.1114 56.2326 18.1831 56.2897 18.274C56.3468 18.3648 56.3754 18.4707 56.3718 18.5779C56.3681 18.6852 56.3325 18.7889 56.2694 18.8757C56.2071 18.9621 56.1202 19.0277 56.02 19.0639C55.9302 19.0971 55.8331 19.1057 55.7389 19.0888C55.6564 19.074 55.5787 19.0398 55.5121 18.9891C55.4132 18.916 55.3417 18.8117 55.3092 18.6932C55.2998 18.6598 55.2934 18.6256 55.2899 18.5911C55.3069 18.5911 55.3182 18.5821 55.3182 18.5775C55.3182 18.573 55.3046 18.5662 55.2854 18.5628C55.2627 18.5608 55.24 18.5608 55.2173 18.5628C55.1899 18.5626 55.1625 18.5657 55.1357 18.5718V18.565C55.1352 18.4425 55.0955 18.3233 55.0223 18.2249C54.9556 18.1334 54.8627 18.0642 54.7559 18.0265C54.6592 17.9923 54.5551 17.9845 54.4543 18.0038C54.3485 18.0252 54.251 18.0764 54.1733 18.1513C54.0956 18.2262 54.0409 18.3218 54.0156 18.4267C54.0076 18.4602 54.0034 18.4944 54.0031 18.5288C54.0013 18.5404 54.0013 18.5523 54.0031 18.5639C54.0031 18.5639 54.0031 18.5152 54.028 18.4313C54.0608 18.3124 54.1322 18.2079 54.231 18.1342C54.2977 18.0839 54.3754 18.0501 54.4577 18.0356C54.5352 18.0215 54.6147 18.0245 54.6909 18.0446C54.767 18.0646 54.8377 18.1011 54.8982 18.1515C54.9587 18.2019 55.0073 18.265 55.0407 18.3362C55.0741 18.4075 55.0914 18.4852 55.0915 18.5639C55.0914 18.6738 55.0577 18.7811 54.9948 18.8713C54.932 18.9614 54.8431 19.0302 54.74 19.0684C54.6498 19.1016 54.5524 19.1102 54.4577 19.0934C54.3753 19.0785 54.2976 19.0443 54.231 18.9936C54.1321 18.9205 54.0606 18.8163 54.028 18.6977C54.0054 18.6138 54.0076 18.5639 54.0031 18.5639C54.0014 18.5759 54.0014 18.5882 54.0031 18.6002C54.0034 18.6342 54.0076 18.6681 54.0156 18.7011C54.0439 18.8262 54.1148 18.9377 54.2162 19.0163C54.2856 19.0723 54.3672 19.1111 54.4543 19.1296C54.5551 19.149 54.6592 19.1412 54.7559 19.107C54.8625 19.0689 54.9553 18.9998 55.0223 18.9086C55.0899 18.818 55.1293 18.7096 55.1357 18.5968C55.1631 18.6036 55.1914 18.6066 55.2196 18.6059C55.2415 18.6073 55.2635 18.6073 55.2854 18.6059C55.2856 18.6399 55.2898 18.6737 55.2978 18.7068C55.3223 18.8122 55.3767 18.9084 55.4545 18.9836C55.5324 19.0588 55.6303 19.11 55.7366 19.1308C55.837 19.1502 55.9407 19.1423 56.037 19.1081C56.1441 19.0703 56.2373 19.0011 56.3046 18.9097C56.3512 18.8463 56.3837 18.7736 56.3998 18.6966C56.4599 18.7158 56.6436 18.7589 56.8658 18.802C57.0284 18.8403 57.1936 18.8664 57.3601 18.8802C57.2016 18.8224 57.0385 18.778 56.8726 18.7476Z" fill="#263238"/>
  <path d="M57.2487 19.2921C57.2375 19.1743 57.2506 19.0555 57.2873 18.9429C57.306 18.8869 57.3395 18.8369 57.3841 18.7982C57.4288 18.7595 57.4831 18.7336 57.5412 18.723C57.6085 18.7196 57.6747 18.7408 57.7277 18.7824C57.7806 18.8241 57.8167 18.8835 57.8292 18.9498C57.8374 19.0175 57.8251 19.0862 57.7937 19.1469C57.7624 19.2075 57.7135 19.2574 57.6535 19.2899C57.5929 19.3212 57.5262 19.3385 57.458 19.3404C57.3899 19.3424 57.3223 19.329 57.2601 19.3012" fill="#FFBE9D"/>
  <path d="M57.4505 19.1913C57.4505 19.1834 57.489 19.2004 57.5389 19.1913C57.57 19.1804 57.597 19.16 57.6159 19.1329C57.6348 19.1059 57.6448 19.0735 57.6443 19.0405C57.6474 19.024 57.6468 19.007 57.6425 18.9907C57.6382 18.9744 57.6303 18.9593 57.6194 18.9464C57.5977 18.929 57.57 18.9208 57.5423 18.9238C57.489 18.9238 57.4516 18.9419 57.4493 18.9328C57.4471 18.9238 57.4731 18.9 57.5366 18.8829C57.556 18.8781 57.5763 18.8776 57.5959 18.8815C57.6155 18.8854 57.634 18.8937 57.65 18.9056C57.6687 18.9233 57.6828 18.9452 57.6913 18.9694C57.6998 18.9937 57.7023 19.0196 57.6987 19.0451C57.697 19.0936 57.6786 19.1401 57.6466 19.1766C57.6199 19.2074 57.5827 19.2272 57.5423 19.2321C57.4811 19.231 57.4505 19.1913 57.4505 19.1913Z" fill="#EB996E"/>
  <path d="M60.1965 46.1339L59.3428 45.5546L60.4187 43.9492L61.676 44.7836L61.6159 44.8868C61.3438 45.3471 60.1999 47.2042 59.9153 47.4411C59.5911 47.7041 60.1965 46.1339 60.1965 46.1339Z" fill="#28A745"/>
  <path d="M59.8087 47.4212C59.7928 47.411 60.1862 46.8045 60.6873 46.0675C61.1884 45.3306 61.6057 44.7399 61.6215 44.7501C61.6374 44.7603 61.2429 45.3669 60.7418 46.1106C60.2406 46.8543 59.8234 47.4337 59.8087 47.4212Z" fill="#263238"/>
  <path d="M60.3517 46.2794C60.3517 46.2975 60.2985 46.3077 60.2384 46.3123C60.1783 46.3168 60.125 46.3123 60.1193 46.2941C60.1136 46.276 60.1658 46.2499 60.2327 46.2465C60.2996 46.2431 60.354 46.2612 60.3517 46.2794Z" fill="#263238"/>
  <path d="M60.3395 46.4178C60.3395 46.4359 60.2772 46.4382 60.208 46.4336C60.1388 46.4291 60.081 46.42 60.0799 46.4008C60.0787 46.3815 60.1377 46.3634 60.2114 46.3679C60.2851 46.3724 60.3429 46.3996 60.3395 46.4178Z" fill="#263238"/>
  <path d="M61.2878 45.2314C61.2798 45.2314 61.2583 45.2008 61.2322 45.143C61.197 45.0655 61.1766 44.982 61.1722 44.897C61.1677 44.8088 61.1933 44.7217 61.2447 44.6498C61.2867 44.5954 61.3275 44.5807 61.332 44.5875C61.3365 44.5943 61.3105 44.6226 61.2833 44.6748C61.2502 44.7432 61.2346 44.8188 61.2379 44.8947C61.2433 44.9736 61.2562 45.0518 61.2765 45.1283C61.2912 45.1884 61.2969 45.228 61.2878 45.2314Z" fill="#263238"/>
  <path d="M60.1885 46.1752C60.1805 46.1593 60.2111 46.1276 60.2531 46.097C60.295 46.0663 60.3336 46.0459 60.3472 46.0584C60.3608 46.0709 60.3392 46.1151 60.2916 46.1502C60.244 46.1854 60.1953 46.1922 60.1885 46.1752Z" fill="#263238"/>
  <path d="M60.1227 46.0931C60.108 46.0818 60.1227 46.0308 60.1613 45.9798C60.1998 45.9288 60.2395 45.8947 60.2542 45.9038C60.269 45.9129 60.2542 45.9639 60.2157 46.0172C60.1771 46.0705 60.1363 46.1045 60.1227 46.0931Z" fill="#263238"/>
  <path d="M50.135 47.4543V46.4226L52.0623 46.4102L52.0782 47.9203L51.958 47.9282C51.4251 47.9611 49.2461 48.0586 48.8879 47.9532C48.4945 47.8353 50.135 47.4543 50.135 47.4543Z" fill="#28A745"/>
  <path d="M48.8474 47.8571C48.8474 47.839 49.5708 47.8242 50.4619 47.8242C51.353 47.8242 52.0763 47.839 52.0763 47.8571C52.0763 47.8752 51.3541 47.8911 50.4619 47.8911C49.5696 47.8911 48.8474 47.8764 48.8474 47.8571Z" fill="#263238"/>
  <path d="M50.1 47.6615C50.0842 47.6705 50.0468 47.6331 50.0082 47.5832C49.9697 47.5333 49.9436 47.488 49.9561 47.4699C49.9685 47.4517 50.0195 47.4846 50.0604 47.539C50.1012 47.5934 50.1159 47.6524 50.1 47.6615Z" fill="#263238"/>
  <path d="M49.9774 47.7304C49.9604 47.7372 49.9264 47.6907 49.8913 47.6306C49.8561 47.5705 49.8312 47.5172 49.8459 47.5059C49.8606 47.4945 49.9094 47.5331 49.9479 47.5977C49.9865 47.6623 49.9944 47.7236 49.9774 47.7304Z" fill="#263238"/>
  <path d="M51.4935 47.8511C51.4867 47.8511 51.5026 47.8092 51.5355 47.7559C51.58 47.6835 51.6372 47.6197 51.7044 47.5677C51.7754 47.5149 51.8619 47.487 51.9504 47.4883C52.0184 47.4883 52.0547 47.5189 52.0513 47.5257C52.0479 47.5325 52.0094 47.5257 51.9515 47.5348C51.8765 47.5465 51.8053 47.5761 51.7441 47.621C51.6818 47.6696 51.6245 47.7243 51.5729 47.7842C51.5309 47.8296 51.5015 47.8568 51.4935 47.8511Z" fill="#263238"/>
  <path d="M50.0954 47.4695C50.1044 47.4537 50.1487 47.4616 50.1963 47.4786C50.2439 47.4956 50.2847 47.5171 50.2813 47.5353C50.2779 47.5534 50.2303 47.5602 50.1747 47.5409C50.1192 47.5217 50.0818 47.4854 50.0954 47.4695Z" fill="#263238"/>
  <path d="M50.1258 47.3716C50.1258 47.3535 50.1791 47.3388 50.2392 47.3399C50.2993 47.341 50.3526 47.3569 50.3526 47.3751C50.3526 47.3932 50.3027 47.4068 50.2392 47.4068C50.1757 47.4068 50.1236 47.3898 50.1258 47.3716Z" fill="#263238"/>
  <path d="M55.0099 23.6308L52.9159 22.9336C52.9159 22.9336 51.9919 25.5956 51.7085 25.6217C50.1394 25.7645 48.4603 25.2441 47.8708 25.0389C47.8119 24.972 47.7438 24.8915 47.6679 24.7929C47.6026 24.708 47.5523 24.6125 47.5193 24.5106C47.474 24.3857 47.4458 24.2553 47.4355 24.1229C47.4379 24.0974 47.4323 24.0717 47.4195 24.0495C47.4068 24.0273 47.3874 24.0096 47.3641 23.9988C47.3408 23.9881 47.3147 23.9849 47.2895 23.9897C47.2643 23.9944 47.2412 24.0069 47.2234 24.0254C47.1566 24.1138 47.1384 24.4494 47.2937 24.8122C47.4491 25.175 46.9003 24.8859 46.6985 24.7838C46.4967 24.6818 45.8584 24.3984 45.7779 24.4358C45.6646 24.4913 45.6974 24.6274 45.9015 24.7238C46.1056 24.8201 46.6951 25.1523 46.6373 25.2566C46.5795 25.3609 45.5591 24.8292 45.5591 24.8292C45.5591 24.8292 45.3596 24.6807 45.2882 24.7986C45.1589 25.0106 46.2836 25.4947 46.3924 25.5378C46.4672 25.5673 46.4083 25.6829 46.3289 25.6511C46.2496 25.6194 45.3244 25.099 45.1895 25.311C45.0875 25.4754 46.1124 25.7169 46.245 25.93C46.3777 26.1432 45.4854 25.6682 45.3947 25.8303C45.3607 25.8904 45.3426 25.9436 45.8936 26.1387C46.298 26.2642 46.7091 26.3675 47.1248 26.4482V26.4538C47.1248 26.4538 52.6291 28.9152 53.8138 26.5434C55.07 24.0265 55.0099 23.6308 55.0099 23.6308Z" fill="#FFBE9D"/>
  <path d="M53.7288 29.4819C53.7288 29.4819 52.3944 38.3499 52.586 38.7785C52.7776 39.207 59.6401 46.4879 59.6401 46.4879L61.2454 43.7374C61.2454 43.7374 55.8319 37.6946 55.8727 37.5325C55.9135 37.3704 57.7909 28.7461 57.7909 28.7461L53.7288 29.4819Z" fill="#455A64"/>
  <path d="M54.0203 40.4349L55.1484 37.9577L56.2764 35.4805L54.3763 38.774L54.0203 40.4349Z" fill="#263238"/>
  <path d="M54.6924 38.2227C54.6976 38.2549 54.6999 38.2875 54.6992 38.3202C54.6992 38.3905 54.6992 38.4845 54.706 38.6013V38.5923C55.1357 39.0775 56.0881 40.1795 57.1878 41.4674L59.0981 43.719L59.6718 44.4072C59.7353 44.4843 59.7852 44.5477 59.8248 44.5954C59.8442 44.6163 59.8609 44.6395 59.8747 44.6645C59.8529 44.6464 59.8327 44.6263 59.8146 44.6044L59.6525 44.423C59.5074 44.2586 59.3124 44.0296 59.063 43.7496L57.1356 41.5105C56.037 40.2237 55.0949 39.1104 54.6834 38.6104C54.6834 38.497 54.6834 38.3995 54.689 38.3292C54.6853 38.2937 54.6865 38.2579 54.6924 38.2227Z" fill="#263238"/>
  <path d="M60.73 43.1681C60.7458 43.1783 60.3706 43.7735 59.8933 44.4968C59.416 45.2202 59.0169 45.7995 59.0022 45.7893C58.9874 45.7791 59.3616 45.1839 59.8389 44.4606C60.3162 43.7372 60.7152 43.1579 60.73 43.1681Z" fill="#263238"/>
  <path d="M53.2459 32.81C53.2584 32.717 54.3241 30.3158 54.3241 30.3158L53.8071 29.5868L53.7152 29.5664L53.2459 32.81Z" fill="#263238"/>
  <path d="M54.7743 29.3957L53.7153 29.5726L54.3242 30.322C53.3412 32.5464 51.3107 37.2559 51.067 38.7739C50.7427 40.7852 49.5217 47.0672 49.6441 47.1636C49.7666 47.2599 52.5816 47.1636 52.5816 47.1636L54.3763 38.7739L58.3444 31.9013C58.8379 31.0454 58.9821 30.0321 58.7469 29.0726L58.6675 28.7461" fill="#455A64"/>
  <path d="M51.6013 46.2328C51.602 46.2172 51.6039 46.2017 51.607 46.1864C51.607 46.1523 51.6184 46.107 51.6274 46.0492L51.7147 45.5243C51.7952 45.0651 51.9097 44.4064 52.0548 43.5969C52.2 42.7874 52.3734 41.8136 52.565 40.7388C52.6648 40.2014 52.7691 39.6368 52.8768 39.0518C52.904 38.9067 52.9335 38.7593 52.9618 38.6108C52.9766 38.5359 52.9902 38.4622 53.0072 38.384C53.0162 38.3466 53.023 38.3081 53.0344 38.2706L53.0763 38.1573C53.1897 37.8693 53.319 37.5904 53.4459 37.2968C54.472 34.9919 55.4266 32.9172 56.117 31.4161L56.9412 29.6396C57.0376 29.4332 57.1147 29.2722 57.168 29.1588C57.1929 29.1067 57.2133 29.0647 57.2292 29.0341C57.2353 29.0194 57.2429 29.0053 57.2519 28.9922L57.2349 29.0375L57.1804 29.1645L56.9639 29.6509C56.77 30.0772 56.4934 30.6894 56.1556 31.4376C55.4753 32.9444 54.5275 35.0214 53.5026 37.3262C53.3756 37.6142 53.2475 37.8999 53.1342 38.1822L53.0933 38.2865C53.082 38.3228 53.0763 38.3602 53.0673 38.3999C53.0503 38.4724 53.0367 38.5484 53.0208 38.6266C52.9924 38.7752 52.9641 38.9225 52.9358 39.0677C52.8224 39.6515 52.7215 40.2161 52.6206 40.7524C52.4233 41.8272 52.2453 42.7931 52.0957 43.6083C51.946 44.4234 51.8247 45.0753 51.7408 45.5356C51.6977 45.7623 51.6637 45.9347 51.641 46.0582C51.6286 46.1149 51.6195 46.1603 51.6127 46.1943C51.6103 46.2075 51.6065 46.2204 51.6013 46.2328Z" fill="#263238"/>
  <path d="M52.7492 46.3567C52.7492 46.3748 52.069 46.3771 51.2402 46.3567C50.4115 46.3363 49.7312 46.3147 49.7312 46.2966C49.7312 46.2785 50.4115 46.2762 51.2414 46.2909C52.0713 46.3057 52.7504 46.3385 52.7492 46.3567Z" fill="#263238"/>
  <path d="M53.7148 29.5726L53.7557 29.6689L58.8427 29.2574L58.6636 28.7461L53.7148 29.5726Z" fill="#263238"/>
  <path d="M55.8157 21.2846L55.4756 22.6586L55.4631 21.67L55.4892 21.4512L55.5198 21.2846L55.0663 21.1315L54.8327 21.4954H54.7647C54.7647 21.4954 52.9337 21.3129 52.2932 23.7323L51.707 25.1665L53.4813 26.0508V26.1641L53.5947 29.5869L58.7192 28.757C58.7396 27.9883 57.955 26.5961 58.1285 25.9L58.7192 23.5191L57.9448 21.3004L57.4086 21.3174L57.1104 20.9648L55.8213 21.2846" fill="#263238"/>
  <path d="M53.5135 26.0279C53.4722 26.0164 53.4337 25.9967 53.4001 25.9701C53.3056 25.9051 53.225 25.8218 53.1632 25.7252C53.0694 25.5804 53.0267 25.4084 53.0419 25.2366C53.0505 25.0264 53.1198 24.8232 53.2414 24.6516C53.3357 24.517 53.4599 24.406 53.6042 24.3273L53.5883 24.3477C53.6314 24.0337 53.6699 23.7638 53.7017 23.5722C53.7125 23.47 53.7315 23.3688 53.7584 23.2695C53.7585 23.3727 53.7509 23.4758 53.7357 23.5779C53.7164 23.7695 53.6858 24.0416 53.6473 24.3556V24.3693L53.6337 24.3772C53.4797 24.4649 53.3502 24.5898 53.2571 24.7406C53.164 24.8913 53.1103 25.063 53.1008 25.24C53.0837 25.4015 53.1195 25.5642 53.2029 25.7037C53.2596 25.798 53.3325 25.8817 53.4183 25.9508C53.4829 26.0007 53.5146 26.0234 53.5135 26.0279Z" fill="#455A64"/>
  <path d="M53.7096 23.728C53.6948 23.7348 53.645 23.6623 53.5962 23.5648C53.5475 23.4673 53.5214 23.3822 53.5361 23.3754C53.5509 23.3686 53.6007 23.4412 53.6495 23.5387C53.6982 23.6362 53.7209 23.7144 53.7096 23.728Z" fill="#455A64"/>
  <path d="M48.4668 22.7539L64.5862 25.8501C65.7358 26.0712 66.4592 27.121 66.3288 28.3171C66.327 28.3339 66.3239 28.3506 66.3197 28.367C66.2661 28.6498 66.1567 28.919 65.9981 29.1591C65.8394 29.3993 65.6346 29.6054 65.3956 29.7657C65.1565 29.9259 64.888 30.037 64.6056 30.0926C64.3232 30.1481 64.0326 30.1469 63.7507 30.0891L47.9533 26.9011L44.4693 24.1167L48.4668 22.7539Z" fill="#28A745"/>
  <path d="M48.4668 22.7539C48.4668 22.7539 49.3466 23.0838 49.1652 23.9273C48.9838 24.7708 48.1324 24.7357 48.1324 24.7357C48.1324 24.7357 48.96 24.9193 48.731 26.1018C48.5825 26.8637 47.9533 26.9034 47.9533 26.9034L44.4693 24.1167L48.4668 22.7539Z" fill="#E0E0E0"/>
  <path d="M45.2264 24.7206C45.5665 24.5517 45.6855 24.1016 45.5665 23.7422L44.4724 24.1152L45.2264 24.7206Z" fill="#455A64"/>
  <path d="M64.366 28.0245L64.324 28.0188L64.1993 27.9984L63.7243 27.9134C63.3116 27.8385 62.7164 27.7263 61.9795 27.5846C60.5056 27.3011 58.4774 26.8941 56.2371 26.4316L50.5027 25.2389L48.7647 24.875L48.2931 24.7741L48.1706 24.7457C48.1563 24.7436 48.1422 24.7398 48.1287 24.7344C48.1432 24.7349 48.1576 24.7368 48.1718 24.74L48.2954 24.7616L48.7693 24.8523L50.5141 25.1992L56.253 26.3749C58.4921 26.8374 60.5215 27.2513 61.992 27.5449L63.7322 27.8918L64.205 27.9882L64.3286 28.0143C64.3414 28.0161 64.354 28.0195 64.366 28.0245Z" fill="#455A64"/>
  <path d="M63.7507 30.0906C64.0326 30.1484 64.3232 30.1495 64.6056 30.094C64.888 30.0385 65.1565 29.9274 65.3956 29.7671C65.6346 29.6069 65.8395 29.4007 65.9981 29.1606C66.1568 28.9205 66.2661 28.6512 66.3197 28.3684C66.324 28.3521 66.327 28.3354 66.3288 28.3186C66.4592 27.1225 65.7359 26.0726 64.5863 25.8516L63.7507 30.0906Z" fill="#455A64"/>
  <path d="M57.3436 23.3984C57.3436 23.3984 56.3629 26.4924 56.0897 26.5604C54.5614 26.9504 52.8212 26.7021 52.2078 26.5922C52.1387 26.5355 52.057 26.4652 51.9675 26.3813C51.8902 26.3075 51.8258 26.2213 51.777 26.1262C51.7121 26.0103 51.6636 25.8859 51.633 25.7566C51.6319 25.7305 51.6225 25.7054 51.6062 25.685C51.5899 25.6646 51.5675 25.6499 51.5423 25.6429C51.5171 25.636 51.4904 25.6372 51.466 25.6465C51.4415 25.6557 51.4206 25.6724 51.4063 25.6942C51.353 25.7917 51.3893 26.1262 51.599 26.4595C51.599 26.4595 50.37 27.2395 50.1013 27.2327C49.8327 27.2259 49.0629 27.2066 49.1433 27.3132C49.2238 27.4198 50.1013 27.566 50.1013 27.566L51.6886 28.1046C51.6886 28.1046 57.5114 29.6714 58.3084 27.1409C58.7959 25.5899 59.1338 24.6773 59.2098 24.3066L57.3436 23.3984Z" fill="#FFBE9D"/>
  <path d="M57.9527 21.3058C57.9527 21.3058 59.2339 21.5326 59.2837 23.63C59.3075 24.9055 59.0326 26.1688 58.4811 27.3191L56.2272 26.1355C56.7334 25.1225 57.1141 24.0515 57.3609 22.9463L57.9459 21.3047L57.9527 21.3058Z" fill="#263238"/>
  <path d="M57.2952 23.0625C57.2952 23.106 57.2903 23.1494 57.2804 23.1917C57.268 23.2734 57.2464 23.3913 57.2147 23.5319C57.1315 23.9091 57.0266 24.2812 56.9006 24.6463C56.7739 25.0114 56.6259 25.3688 56.4573 25.7166C56.3927 25.8503 56.3372 25.9569 56.2964 26.0283C56.2778 26.0684 56.255 26.1065 56.2283 26.1417C56.2387 26.0997 56.2547 26.0593 56.276 26.0215C56.3145 25.9342 56.3632 25.8277 56.4199 25.703C56.5401 25.4331 56.6966 25.0556 56.8451 24.6304C56.9936 24.2053 57.1013 23.8119 57.1739 23.5251C57.2071 23.3913 57.2355 23.2779 57.2589 23.1849C57.266 23.1428 57.2782 23.1017 57.2952 23.0625Z" fill="#455A64"/>
</svg>