<svg xmlns="http://www.w3.org/2000/svg" width="215" height="219" viewBox="0 0 215 219" fill="none">
  <mask id="path-1-inside-1_2528_5508" fill="white">
    <path d="M48.8398 1C49.6096 -0.333288 51.5339 -0.333198 52.3037 1L67.1201 26.6631H208C211.866 26.6631 215 29.7971 215 33.6631V211.663C215 215.529 211.866 218.663 208 218.663H7C3.13401 218.663 0 215.529 0 211.663V33.6631C4.74182e-05 29.7971 3.13404 26.6631 7 26.6631H34.0234L48.8398 1Z"/>
  </mask>
  <path d="M48.8398 1C49.6096 -0.333288 51.5339 -0.333198 52.3037 1L67.1201 26.6631H208C211.866 26.6631 215 29.7971 215 33.6631V211.663C215 215.529 211.866 218.663 208 218.663H7C3.13401 218.663 0 215.529 0 211.663V33.6631C4.74182e-05 29.7971 3.13404 26.6631 7 26.6631H34.0234L48.8398 1Z" fill="white"/>
  <path d="M48.8398 1L47.9738 0.5L47.9738 0.500005L48.8398 1ZM52.3037 1L53.1697 0.500005L53.1697 0.499937L52.3037 1ZM67.1201 26.6631L66.2541 27.1631L66.5428 27.6631H67.1201V26.6631ZM208 26.6631V25.6631V26.6631ZM215 33.6631H216V33.6631L215 33.6631ZM7 218.663V219.663V218.663ZM0 33.6631L-1 33.6631V33.6631H0ZM34.0234 26.6631V27.6631H34.6008L34.8895 27.1631L34.0234 26.6631ZM48.8398 1L49.7059 1.5C50.0907 0.833473 51.0527 0.833352 51.4377 1.50006L52.3037 1L53.1697 0.499937C52.015 -1.49975 49.1285 -1.50005 47.9738 0.5L48.8398 1ZM52.3037 1L51.4377 1.5L66.2541 27.1631L67.1201 26.6631L67.9861 26.1631L53.1697 0.500005L52.3037 1ZM67.1201 26.6631V27.6631H208V26.6631V25.6631H67.1201V26.6631ZM208 26.6631V27.6631C211.314 27.6631 214 30.3494 214 33.6631L215 33.6631L216 33.6631C216 29.2449 212.418 25.6631 208 25.6631V26.6631ZM215 33.6631H214V211.663H215H216V33.6631H215ZM215 211.663H214C214 214.977 211.314 217.663 208 217.663V218.663V219.663C212.418 219.663 216 216.081 216 211.663H215ZM208 218.663V217.663H7V218.663V219.663H208V218.663ZM7 218.663V217.663C3.68629 217.663 1 214.977 1 211.663H0H-1C-1 216.081 2.58172 219.663 7 219.663V218.663ZM0 211.663H1V33.6631H0H-1V211.663H0ZM0 33.6631L1 33.6631C1.00004 30.3494 3.68633 27.6631 7 27.6631V26.6631V25.6631C2.58174 25.6631 -0.999946 29.2449 -1 33.6631L0 33.6631ZM7 26.6631V27.6631H34.0234V26.6631V25.6631H7V26.6631ZM34.0234 26.6631L34.8895 27.1631L49.7059 1.5L48.8398 1L47.9738 0.500005L33.1574 26.1631L34.0234 26.6631Z" fill="url(#paint0_linear_2528_5508)" mask="url(#path-1-inside-1_2528_5508)"/>
  <defs>
    <linearGradient id="paint0_linear_2528_5508" x1="-33.3826" y1="114.538" x2="223.925" y2="108.592" gradientUnits="userSpaceOnUse">
      <stop offset="0.0450756" stop-color="#44B0FF"/>
      <stop offset="0.407267" stop-color="#973EEE"/>
      <stop offset="0.619291" stop-color="#F12AE6"/>
      <stop offset="0.804013" stop-color="#FF7039"/>
      <stop offset="0.957942" stop-color="#F3BC3B"/>
    </linearGradient>
  </defs>
</svg>