<svg width="195" height="33" viewBox="0 0 195 33" fill="none" xmlns="http://www.w3.org/2000/svg">
<path d="M40.1879 8.63507L32.2559 10.2732L25.8785 16.0471L18.2052 8.37383L18.2457 8.33331L11.1216 1.20919C9.50931 -0.403065 6.89434 -0.403065 5.28209 1.20919L1.20919 5.28209C-0.403065 6.89435 -0.403065 9.50931 1.20919 11.1216L18.4285 28.3408C23.8524 33.7648 32.6474 33.7648 38.0713 28.3408L38.1213 28.2908L55.0284 11.3837L50.0424 6.47871L40.1879 8.63507Z" fill="url(#paint0_linear_2528_5639)"/>
<path d="M50.1 6.47909L43.8062 7.68612L39.4091 8.63451L38.6832 9.02938L31.0349 1.38107C29.4226 -0.23119 26.8077 -0.23119 25.1954 1.38107L18.2437 8.33275L30.7409 20.8299C34.8379 24.9269 41.4809 24.9269 45.5788 20.8299L48.0317 18.377L55.0265 11.3822L50.1009 6.47909H50.1Z" fill="url(#paint1_linear_2528_5639)"/>
<path d="M18.2441 8.33476L18.2039 8.375L38.1198 28.2909L38.1601 28.2507L18.2441 8.33476Z" fill="#FDB131"/>
<path d="M18.2441 8.33476L18.2039 8.375L38.1198 28.2909L38.1601 28.2507L18.2441 8.33476Z" fill="#FDB131"/>
<path d="M55.0284 11.3818C51.1668 15.2435 44.9057 15.2435 41.0432 11.3818L38.1635 8.50218L45.1557 1.50998C46.768 -0.102283 49.3829 -0.102283 50.9952 1.50998L55.0276 5.54235C56.6398 7.1546 56.6398 9.76957 55.0276 11.3818H55.0284Z" fill="#29AAE1"/>
<path d="M66.9588 6.19141H72.944V26.5619H66.9588V6.19141Z" fill="black"/>
<path d="M79.4283 25.686C77.9178 24.8584 76.7556 23.6582 75.9417 22.0865C75.1278 20.5147 74.7209 18.6093 74.7209 16.3694V16.3556C74.7209 14.1157 75.1304 12.212 75.9495 10.6455C76.7685 9.07891 77.9333 7.88308 79.4439 7.05971C80.9544 6.23634 82.7451 5.82422 84.8152 5.82422C86.7068 5.82422 88.3604 6.19581 89.777 6.93987C91.1935 7.68306 92.2971 8.69266 93.0877 9.96781C93.8783 11.243 94.2732 12.6811 94.2732 14.2804V14.4071H88.5415L88.5277 14.2381C88.4708 13.5605 88.2897 12.9561 87.9845 12.4241C87.6784 11.8922 87.2594 11.474 86.7283 11.1679C86.1964 10.8619 85.5592 10.7093 84.8152 10.7093C83.9961 10.7093 83.2883 10.9309 82.6908 11.3731C82.0933 11.8154 81.632 12.4552 81.307 13.2932C80.982 14.1312 80.8199 15.1477 80.8199 16.3427V16.3565C80.8199 17.5609 80.982 18.5895 81.307 19.4413C81.632 20.2932 82.095 20.9398 82.6977 21.3821C83.2995 21.8244 84.0108 22.046 84.829 22.046C85.5161 22.046 86.1274 21.9002 86.6645 21.608C87.2008 21.3166 87.6336 20.9044 87.963 20.3725C88.2923 19.8405 88.4897 19.2172 88.5561 18.5016L88.5699 18.3464H94.3016V18.5016C94.3016 20.0923 93.899 21.5226 93.0946 22.7935C92.2902 24.0643 91.1771 25.0713 89.7563 25.8145C88.3354 26.5577 86.6878 26.9293 84.8152 26.9293C82.7356 26.9293 80.9397 26.5154 79.4292 25.6869L79.4283 25.686Z" fill="black"/>
<path d="M96.0767 6.19141H102.062V26.5619H96.0767V6.19141ZM99.0839 16.5814H103.757C104.745 16.5814 105.519 16.334 106.079 15.84C106.638 15.3459 106.918 14.6139 106.918 13.6449V13.6164C106.918 12.6379 106.638 11.9059 106.079 11.4213C105.518 10.9368 104.745 10.6945 103.757 10.6945H99.0839V6.19141H105.182C106.773 6.19141 108.149 6.49748 109.311 7.10876C110.473 7.7209 111.372 8.58135 112.007 9.69182C112.642 10.8023 112.96 12.1111 112.96 13.6164V13.6449C112.96 15.1511 112.642 16.4538 112.007 17.5548C111.372 18.6558 110.473 19.505 109.311 20.1025C108.149 20.7 106.772 20.9992 105.182 20.9992H99.0839V16.5806V16.5814Z" fill="black"/>
<path d="M114.82 6.19141H121.003L123.347 18.6567H123.46L126.354 6.19141H131.267L134.161 18.6567H134.274L136.617 6.19141H142.801L137.549 26.5619H131.62L128.867 15.5934H128.754L126.001 26.5619H120.072L114.821 6.19141H114.82Z" fill="black"/>
<path d="M146.244 25.9463C145.021 25.3109 144.082 24.3892 143.428 23.1796C142.773 21.9699 142.447 20.5043 142.447 18.7825V18.7541C142.447 17.0599 142.783 15.6063 143.456 14.3923C144.129 13.1784 145.077 12.249 146.3 11.6041C147.524 10.9592 148.969 10.6367 150.635 10.6367C152.3 10.6367 153.759 10.9566 154.982 11.5963C156.206 12.236 157.154 13.1612 157.827 14.3699C158.499 15.5795 158.836 17.0401 158.836 18.7532V18.7816C158.836 20.5137 158.507 21.9837 157.848 23.1934C157.19 24.403 156.248 25.3229 155.025 25.9532C153.801 26.5834 152.337 26.899 150.635 26.899C148.932 26.899 147.468 26.5817 146.244 25.9463ZM151.892 22.1631C152.24 21.8665 152.505 21.4337 152.689 20.8646C152.873 20.2956 152.964 19.6016 152.964 18.7825V18.7541C152.964 17.9445 152.868 17.2556 152.674 16.6857C152.481 16.1167 152.211 15.6813 151.862 15.3795C151.514 15.0786 151.104 14.9277 150.634 14.9277C150.163 14.9277 149.753 15.0786 149.405 15.3795C149.057 15.6804 148.789 16.1158 148.601 16.6857C148.412 17.2556 148.318 17.9445 148.318 18.7541V18.7825C148.318 19.6016 148.409 20.2956 148.593 20.8646C148.777 21.4345 149.042 21.8673 149.39 22.1631C149.739 22.4597 150.158 22.608 150.647 22.608C151.135 22.608 151.541 22.4597 151.889 22.1631H151.892Z" fill="black"/>
<path d="M161.582 10.9756H167.37V13.7707H167.483C167.68 12.7542 168.073 11.9783 168.661 11.4411C169.249 10.9049 170.01 10.6367 170.941 10.6367C171.186 10.6367 171.425 10.6557 171.661 10.6928C171.896 10.7307 172.122 10.7867 172.338 10.8617V15.7321C172.094 15.6287 171.828 15.5485 171.541 15.4925C171.254 15.4356 170.96 15.408 170.659 15.408C169.934 15.408 169.327 15.5304 168.838 15.7753C168.348 16.0201 167.982 16.3848 167.737 16.8693C167.492 17.3539 167.37 17.9591 167.37 18.6834V26.561H161.582V10.9756Z" fill="black"/>
<path d="M173.537 6.19141H179.325V26.5619H173.537V6.19141ZM178.873 16.6099H179.438L183.221 10.9773H189.588L182.587 19.956H180.949L178.874 22.6666V16.6107L178.873 16.6099ZM179.551 20.2094L183.123 15.5649L189.955 26.5619H183.306L179.552 20.2094H179.551Z" fill="black"/>
<path d="M192.062 23.3641H192.958C193.114 23.3641 193.25 23.3926 193.364 23.4504C193.479 23.5081 193.568 23.5892 193.63 23.6944C193.692 23.7995 193.723 23.9246 193.723 24.0694V24.0729C193.723 24.2298 193.683 24.366 193.604 24.4832C193.525 24.6005 193.416 24.6824 193.277 24.729L193.793 25.6679H193.379L192.909 24.785H192.418V25.6679H192.06V23.3633L192.062 23.3641ZM192.922 24.4901C193.059 24.4901 193.166 24.4539 193.242 24.3824C193.318 24.3108 193.356 24.2082 193.356 24.0763V24.0729C193.356 23.9461 193.316 23.8461 193.237 23.7737C193.158 23.7013 193.049 23.6642 192.912 23.6642H192.42V24.4901H192.923H192.922Z" fill="black"/>
<path d="M192.758 26.7567C191.522 26.7567 190.517 25.7514 190.517 24.5151C190.517 23.2787 191.522 22.2734 192.758 22.2734C193.995 22.2734 195 23.2787 195 24.5151C195 25.7514 193.995 26.7567 192.758 26.7567ZM192.758 22.6183C191.712 22.6183 190.862 23.4693 190.862 24.5151C190.862 25.5609 191.712 26.4119 192.758 26.4119C193.804 26.4119 194.655 25.5609 194.655 24.5151C194.655 23.4693 193.804 22.6183 192.758 22.6183Z" fill="black"/>
<defs>
<linearGradient id="paint0_linear_2528_5639" x1="15.066" y1="-1.80064" x2="47.4853" y2="30.6187" gradientUnits="userSpaceOnUse">
<stop offset="0.21" stop-color="#F05A24"/>
<stop offset="0.68" stop-color="#FAAF3B"/>
</linearGradient>
<linearGradient id="paint1_linear_2528_5639" x1="26.2265" y1="-0.550193" x2="55.4515" y2="28.6748" gradientUnits="userSpaceOnUse">
<stop offset="0.22" stop-color="#EC1E79"/>
<stop offset="0.89" stop-color="#522784"/>
</linearGradient>
</defs>
</svg>
